<svg width="84" height="89" fill="none" xmlns="http://www.w3.org/2000/svg"><path d="M42.759 2v7.434m26.982 2.844-5.256 5.256M82 41.232h-7.434m-5.898 27.746-5.256-5.256m-48.08-51.444 5.256 5.256M2 39.715h7.434m4.825 29.263 5.256-5.256m13.617-18.619 8.073 11.114 12.154-21.456" stroke="#FFB800" stroke-width="3" stroke-linecap="round" stroke-linejoin="round"/><path d="M31.093 69.493c-.976-15.018-12.605-7.413-13.944-27.81-.844-12.876 11.124-23.366 24.848-23.366 13.725 0 25.764 10.493 24.85 23.366C65.61 59.085 56.975 55.57 53.81 64.67M30.805 82.932l22.392-3.839m-22.392-2.654 22.392-3.84m-21.904-3.14 22.392-3.84M49.48 81.475c-.37 3.3-4.234 5.674-8.626 5.298-2.771-.237-5.09-1.507-6.334-3.244" stroke="#FFB800" stroke-width="3" stroke-linecap="round" stroke-linejoin="round"/></svg>