<svg width="84" height="89" viewBox="0 0 84 89" fill="none" xmlns="http://www.w3.org/2000/svg">
<path d="M42.7587 2V9.43415" stroke="#FFB800" stroke-width="3" stroke-linecap="round" stroke-linejoin="round"/>
<path d="M69.7414 12.2778L64.4854 17.5339" stroke="#FFB800" stroke-width="3" stroke-linecap="round" stroke-linejoin="round"/>
<path d="M81.9999 41.2319H74.5658" stroke="#FFB800" stroke-width="3" stroke-linecap="round" stroke-linejoin="round"/>
<path d="M68.6682 68.978L63.4121 63.7219" stroke="#FFB800" stroke-width="3" stroke-linecap="round" stroke-linejoin="round"/>
<path d="M15.3318 12.2778L20.5879 17.5339" stroke="#FFB800" stroke-width="3" stroke-linecap="round" stroke-linejoin="round"/>
<path d="M2 39.7146H9.43415" stroke="#FFB800" stroke-width="3" stroke-linecap="round" stroke-linejoin="round"/>
<path d="M14.2587 68.978L19.5148 63.7219" stroke="#FFB800" stroke-width="3" stroke-linecap="round" stroke-linejoin="round"/>
<path d="M33.1318 45.1027L41.205 56.2173L53.3587 34.7612" stroke="#FFB800" stroke-width="3" stroke-linecap="round" stroke-linejoin="round"/>
<path d="M31.0926 69.4925C30.117 54.4754 18.4877 62.0803 17.1487 41.6827C16.3048 28.8071 28.273 18.3169 41.9974 18.3169C55.7218 18.3169 67.7608 28.8096 66.8462 41.6827C65.6096 59.0852 56.9755 55.5706 53.8096 64.6706" stroke="#FFB800" stroke-width="3" stroke-linecap="round" stroke-linejoin="round"/>
<path d="M30.8047 82.9323L53.1974 79.0933" stroke="#FFB800" stroke-width="3" stroke-linecap="round" stroke-linejoin="round"/>
<path d="M30.8047 76.4386L53.1974 72.5996" stroke="#FFB800" stroke-width="3" stroke-linecap="round" stroke-linejoin="round"/>
<path d="M31.2927 69.4587L53.6854 65.6196" stroke="#FFB800" stroke-width="3" stroke-linecap="round" stroke-linejoin="round"/>
<path d="M49.4805 81.4753C49.1098 84.7753 45.2464 87.1485 40.8537 86.7729C38.0829 86.5363 35.7634 85.2656 34.5195 83.529" stroke="#FFB800" stroke-width="3" stroke-linecap="round" stroke-linejoin="round"/>
</svg>
