<svg width="84" height="85" fill="none" xmlns="http://www.w3.org/2000/svg"><path d="M22.075 44.3c-1.535-1.578-2.592-3.567-2.962-5.768a9.501 9.501 0 0 1-3.587.694c-4.632 0-8.445-3.272-8.92-7.471C3.857 30.325 2 27.59 2 24.45c0-4.617 4.017-8.36 8.97-8.36.123 0 .246.002.366.007a6.066 6.066 0 0 1-.634-2.698c0-3.558 3.097-6.444 6.917-6.444.91 0 1.777.164 2.573.462 2.022-3.198 5.756-5.344 10.03-5.344 2.472 0 4.764.719 6.648 1.944C38.114 2.776 39.887 2 41.855 2c2.095 0 3.969.88 5.22 2.266a11.45 11.45 0 0 1 4.495-.911c2.962 0 5.644 1.11 7.597 2.907a7.412 7.412 0 0 1 2.03-.283c3.71 0 6.736 2.721 6.907 6.138.37-.058.752-.09 1.139-.09 3.767 0 6.82 2.846 6.82 6.356 0 .348-.03.689-.088 1.02C79.482 20.54 82 23.647 82 27.303a7.92 7.92 0 0 1-1.588 4.747 9.878 9.878 0 0 1 .598 3.397c0 5.836-5.079 10.569-11.342 10.569-.144 0-.288-.003-.432-.01.028.233.012.471.043.709.428 3.28-1.975 6.153-4.75 6.153-2.568 0-3.06-1.622-5.05-.707-6.126 2.814-10.28 1.701-15.489-2.698m36.026-17.245a7.682 7.682 0 0 1-4.9 1.732c-4.079 0-7.384-3.08-7.384-6.88m.826-3.222c0 3.46-3.01 6.266-6.724 6.266a7.051 7.051 0 0 1-3.782-1.084m18.19 14.975a7.788 7.788 0 0 1-5.099 1.127c-4.043-.493-6.895-3.945-6.369-7.715m-43.167-9.646c1.042 1.415 1.554 3.176 1.306 5.012-.533 3.983-4.43 6.81-8.706 6.314m18.288-17.805c-.022 1.624-.656 3.246-1.92 4.543-2.744 2.813-7.414 3.02-10.431.464m25.713-11.662c1.081.6 1.939 1.557 2.35 2.763.891 2.616-.66 5.408-3.467 6.24m12.135-9.19a5.61 5.61 0 0 0-3.661-.887c-2.93.296-5.043 2.748-4.726 5.478m-4.923 4.451c.913 1.334 1.326 2.975 1.04 4.659-.624 3.659-4.312 6.153-8.238 5.571m27.134 3.945c-1.232 1.36-2.984 2.32-5.026 2.597-2.81.38-5.495-.636-7.241-2.484m16.834 13.475a6.249 6.249 0 0 1-3.988 1.41c-3.32 0-6.013-2.507-6.013-5.602M7.309 33.891c-1.657-2.268-1.03-5.358 1.404-6.905M43.15 40.3c-1.209 1.665-2.996 2.862-5.142 3.236-4.65.815-9.218-2.541-10.198-7.495m15.568 4.476L32.139 57.139l11.056.048L24.05 81.505c-1.192 1.514-4.956 1.759-4.123-.082l8.226-18.131-8.848.132L29.357 40.55" stroke="#FFB800" stroke-width="3" stroke-linecap="round" stroke-linejoin="round"/></svg>