<svg width="85" height="88" fill="none" xmlns="http://www.w3.org/2000/svg"><path d="m29.088 41.721 5.65-3.026-2.527-5.961a14.257 14.257 0 0 0 2.266-2.766l6.34 1.303 1.855-6.134-6.002-2.43a14.175 14.175 0 0 0-.355-3.56l5.406-3.563-3.026-5.65-5.961 2.527a14.26 14.26 0 0 0-2.766-2.266l1.303-6.34L25.137 2l-2.43 6a14.176 14.176 0 0 0-3.56.354l-3.56-5.405-5.65 3.025 2.524 5.96a14.133 14.133 0 0 0-2.268 2.768l-6.338-1.304L2 19.533l6 2.427c-.034 1.211.09 2.406.354 3.563l-5.403 3.56 3.026 5.65 5.96-2.525a14.29 14.29 0 0 0 2.767 2.27l-1.303 6.337 6.134 1.855 2.43-6c1.21.031 2.406-.09 3.56-.355l3.56 5.406h.003Z" stroke="#FFB800" stroke-width="3" stroke-linecap="round" stroke-linejoin="round"/><path d="M23.95 17.01c-3.265-.986-5.948.45-6.937 3.715-.987 3.265.45 5.95 3.714 6.936 3.265.987 5.95-.449 6.937-3.714.986-3.264-.45-5.95-3.715-6.936Zm41.412 67.634 7.37-3.947-3.296-7.776a18.587 18.587 0 0 0 2.957-3.608l8.27 1.701 2.42-8-7.827-3.168a18.51 18.51 0 0 0-.462-4.642l7.053-4.646-3.947-7.37-7.776 3.296a18.593 18.593 0 0 0-3.608-2.957l1.701-8.271-8-2.42-3.168 7.826a18.525 18.525 0 0 0-4.644.461l-4.644-7.05-7.37 3.946 3.294 7.774a18.537 18.537 0 0 0-2.958 3.61l-8.268-1.7-2.42 8 7.823 3.168c-.042 1.58.116 3.14.462 4.646l-7.048 4.644 3.946 7.37 7.774-3.294a18.604 18.604 0 0 0 3.61 2.958l-1.7 8.268 8 2.42 3.168-7.826c1.578.04 3.137-.118 4.644-.463l4.644 7.05Z" stroke="#FFB800" stroke-width="3" stroke-linecap="round" stroke-linejoin="round"/><path d="M59.412 49.928c-5.21-1.575-10.71 1.37-12.285 6.58-1.576 5.209 1.37 10.709 6.579 12.285 5.21 1.575 10.71-1.37 12.285-6.58 1.576-5.209-1.37-10.71-6.579-12.285Z" stroke="#FFB800" stroke-width="3" stroke-linecap="round" stroke-linejoin="round"/></svg>