<svg width="1372" height="1345" fill="none" xmlns="http://www.w3.org/2000/svg"><rect x="1070.92" y="916.923" width="300.153" height="299.153" rx="149.577" stroke="#665E91" stroke-width="1.847"/><path d="m1161.76 1073.5-4.7-14h3l3.42 10.76 3.4-10.76h3.02l-4.72 14h-3.42Zm10.06-11.2c-.86 0-1.58-.72-1.58-1.58 0-.86.72-1.6 1.58-1.6.88 0 1.6.74 1.6 1.6 0 .86-.72 1.58-1.6 1.58Zm-1.28 11.2v-10h2.58v10h-2.58Zm7.32-8.28c.52-1.36 1.78-1.92 3.04-1.92v2.88c-1.34-.16-3.04.44-3.04 2.54v4.78h-2.58v-10h2.58v1.72Zm10.34.76h-2.26v4.16c0 1.08.78 1.1 2.26 1.02v2.34c-3.62.4-4.84-.66-4.84-3.36v-4.16h-1.74v-2.48h1.74v-2.02l2.58-.78v2.8h2.26v2.48Zm8.38-2.48h2.58v10h-2.58v-1.12c-.6.9-1.64 1.4-2.98 1.4-2.12 0-3.78-1.48-3.78-4.14v-6.14h2.58v5.82c0 1.36.82 2.06 1.98 2.06 1.26 0 2.2-.74 2.2-2.48v-5.4Zm12.34 0h2.58v10h-2.58v-1.18c-.72.9-1.8 1.46-3.26 1.46-2.66 0-4.86-2.3-4.86-5.28 0-2.98 2.2-5.28 4.86-5.28 1.46 0 2.54.56 3.26 1.46v-1.18Zm-2.78 7.82c1.6 0 2.78-1.14 2.78-2.82s-1.18-2.82-2.78-2.82c-1.58 0-2.76 1.14-2.76 2.82s1.18 2.82 2.76 2.82Zm7.5 2.18v-14.6h2.58v14.6h-2.58Zm17.34 0-2.82-4.86h-2.1v4.86h-2.76v-14h5.6c2.58 0 4.66 2.08 4.66 4.64 0 1.76-1.1 3.34-2.7 4.08l3.1 5.28h-2.98Zm-4.92-11.42v4.14h2.84c1.04 0 1.9-.92 1.9-2.08 0-1.16-.86-2.06-1.9-2.06h-2.84Zm10.88 7.48c.36 1.32 1.46 1.88 2.82 1.88 1 0 1.8-.42 2.24-1l2.08 1.2c-.94 1.36-2.44 2.14-4.36 2.14-3.36 0-5.48-2.3-5.48-5.28 0-2.98 2.14-5.28 5.28-5.28 2.96 0 5.06 2.34 5.06 5.28 0 .38-.04.72-.1 1.06h-7.54Zm-.04-2h5.1c-.32-1.44-1.4-2.02-2.48-2.02-1.38 0-2.32.74-2.62 2.02Zm16.8-4.06h2.58v10h-2.58v-1.18c-.72.9-1.8 1.46-3.26 1.46-2.66 0-4.86-2.3-4.86-5.28 0-2.98 2.2-5.28 4.86-5.28 1.46 0 2.54.56 3.26 1.46v-1.18Zm-2.78 7.82c1.6 0 2.78-1.14 2.78-2.82s-1.18-2.82-2.78-2.82c-1.58 0-2.76 1.14-2.76 2.82s1.18 2.82 2.76 2.82Zm7.5 2.18v-14.6h2.58v14.6h-2.58Zm6.02-11.2c-.86 0-1.58-.72-1.58-1.58 0-.86.72-1.6 1.58-1.6.88 0 1.6.74 1.6 1.6 0 .86-.72 1.58-1.6 1.58Zm-1.28 11.2v-10h2.58v10h-2.58Zm10.46-7.52h-2.26v4.16c0 1.08.78 1.1 2.26 1.02v2.34c-3.62.4-4.84-.66-4.84-3.36v-4.16h-1.74v-2.48h1.74v-2.02l2.58-.78v2.8h2.26v2.48Zm8.36-2.48h2.76l-3.64 10c-1.04 2.88-2.74 4.14-5.28 4v-2.4c1.42.02 2.14-.58 2.62-1.92l-4.1-9.68h2.82l2.6 6.72 2.22-6.72Z" fill="#FDAF1B"/><rect x="162.923" y="707.923" width="361.153" height="360.153" rx="180.077" stroke="#665E91" stroke-width="1.847"/><path d="M312.54 887.48v1.08c0 2-.64 3.62-1.92 4.86-1.28 1.24-2.933 1.86-4.96 1.86-2.16 0-3.953-.7-5.38-2.1-1.413-1.413-2.12-3.133-2.12-5.16 0-2.04.7-3.767 2.1-5.18 1.413-1.413 3.16-2.12 5.24-2.12 1.307 0 2.5.3 3.58.9 1.08.587 1.92 1.373 2.52 2.36l-2.36 1.36c-.333-.573-.84-1.04-1.52-1.4-.667-.36-1.413-.54-2.24-.54-1.333 0-2.433.44-3.3 1.32-.853.867-1.28 1.967-1.28 3.3 0 1.32.433 2.413 1.3 3.28.88.853 2.04 1.28 3.48 1.28 1.067 0 1.947-.233 2.64-.7a3.558 3.558 0 0 0 1.44-1.96h-4.24v-2.44h7.02Zm9.243-2.48h2.58v10h-2.58v-1.18c-.773.973-1.86 1.46-3.26 1.46-1.333 0-2.48-.507-3.44-1.52-.947-1.027-1.42-2.28-1.42-3.76s.473-2.727 1.42-3.74c.96-1.027 2.107-1.54 3.44-1.54 1.4 0 2.487.487 3.26 1.46V885Zm-4.76 7.04c.52.52 1.18.78 1.98.78s1.46-.26 1.98-.78c.533-.533.8-1.213.8-2.04s-.267-1.5-.8-2.02c-.52-.533-1.18-.8-1.98-.8s-1.46.267-1.98.8c-.52.52-.78 1.193-.78 2.02s.26 1.507.78 2.04Zm20.54-7.32c1.146 0 2.06.373 2.74 1.12.693.747 1.04 1.747 1.04 3V895h-2.58v-5.98c0-.6-.147-1.067-.44-1.4-.294-.333-.707-.5-1.24-.5-.587 0-1.047.193-1.38.58-.32.387-.48.947-.48 1.68V895h-2.58v-5.98c0-.6-.147-1.067-.44-1.4-.294-.333-.707-.5-1.24-.5-.574 0-1.034.193-1.38.58-.334.387-.5.947-.5 1.68V895h-2.58v-10h2.58v1.06c.6-.893 1.526-1.34 2.78-1.34 1.226 0 2.133.48 2.72 1.44.666-.96 1.66-1.44 2.98-1.44Zm7.951 6.34c.347 1.253 1.287 1.88 2.82 1.88.987 0 1.733-.333 2.24-1l2.08 1.2c-.987 1.427-2.44 2.14-4.36 2.14-1.653 0-2.98-.5-3.98-1.5s-1.5-2.26-1.5-3.78c0-1.507.493-2.76 1.48-3.76.987-1.013 2.253-1.52 3.8-1.52 1.467 0 2.673.507 3.62 1.52.96 1.013 1.44 2.267 1.44 3.76 0 .333-.033.687-.1 1.06h-7.54Zm-.04-2h5.1c-.147-.68-.453-1.187-.92-1.52a2.565 2.565 0 0 0-1.56-.5c-.693 0-1.267.18-1.72.54-.453.347-.753.84-.9 1.48Zm14.961-8.06c1.92 0 3.52.673 4.8 2.02 1.293 1.347 1.94 3.007 1.94 4.98 0 1.973-.647 3.633-1.94 4.98-1.28 1.347-2.88 2.02-4.8 2.02h-5.56v-14h5.56Zm0 11.36c1.213 0 2.2-.4 2.96-1.2.76-.813 1.14-1.867 1.14-3.16 0-1.293-.38-2.34-1.14-3.14-.76-.813-1.747-1.22-2.96-1.22h-2.8v8.72h2.8Zm10.558-1.3c.346 1.253 1.286 1.88 2.82 1.88.986 0 1.733-.333 2.24-1l2.08 1.2c-.987 1.427-2.44 2.14-4.36 2.14-1.654 0-2.98-.5-3.98-1.5s-1.5-2.26-1.5-3.78c0-1.507.493-2.76 1.48-3.76.986-1.013 2.253-1.52 3.8-1.52 1.466 0 2.673.507 3.62 1.52.96 1.013 1.44 2.267 1.44 3.76 0 .333-.034.687-.1 1.06h-7.54Zm-.04-2h5.1c-.147-.68-.454-1.187-.92-1.52a2.57 2.57 0 0 0-1.56-.5c-.694 0-1.267.18-1.72.54-.454.347-.754.84-.9 1.48Zm15.47-4.06h2.84l-3.8 10h-2.94l-3.8-10h2.84l2.42 7 2.44-7Z" fill="#FDAF1B"/><rect x="635.923" y="459.923" width="305.153" height="309.153" rx="152.577" stroke="#665E91" stroke-width="1.847"/><path d="M753.44 621.78c-2.107 0-3.847-.7-5.22-2.1-1.373-1.4-2.06-3.127-2.06-5.18 0-2.067.687-3.793 2.06-5.18 1.373-1.4 3.113-2.1 5.22-2.1 1.267 0 2.433.3 3.5.9 1.08.587 1.92 1.387 2.52 2.4l-2.38 1.38a3.632 3.632 0 0 0-1.48-1.46c-.64-.36-1.36-.54-2.16-.54-1.36 0-2.46.427-3.3 1.28-.827.853-1.24 1.96-1.24 3.32 0 1.347.413 2.447 1.24 3.3.84.853 1.94 1.28 3.3 1.28.8 0 1.52-.173 2.16-.52.653-.36 1.147-.847 1.48-1.46l2.38 1.38a6.608 6.608 0 0 1-2.5 2.42c-1.067.587-2.24.88-3.52.88Zm13.112-10.56c1.093 0 1.993.367 2.7 1.1.72.733 1.08 1.747 1.08 3.04v6.14h-2.58v-5.82c0-.667-.18-1.173-.54-1.52-.36-.36-.84-.54-1.44-.54-.667 0-1.2.207-1.6.62-.4.413-.6 1.033-.6 1.86v5.4h-2.58v-14h2.58v5.12c.626-.933 1.62-1.4 2.98-1.4Zm13.383.28h2.58v10h-2.58v-1.18c-.774.973-1.86 1.46-3.26 1.46-1.334 0-2.48-.507-3.44-1.52-.947-1.027-1.42-2.28-1.42-3.76s.473-2.727 1.42-3.74c.96-1.027 2.106-1.54 3.44-1.54 1.4 0 2.486.487 3.26 1.46v-1.18Zm-4.76 7.04c.52.52 1.18.78 1.98.78s1.46-.26 1.98-.78c.533-.533.8-1.213.8-2.04s-.267-1.5-.8-2.02c-.52-.533-1.18-.8-1.98-.8s-1.46.267-1.98.8c-.52.52-.78 1.193-.78 2.02s.26 1.507.78 2.04Zm15.199-4.56h-2.26v4.16c0 .347.087.6.26.76.174.16.427.253.76.28.334.013.747.007 1.24-.02v2.34c-1.773.2-3.026.033-3.76-.5-.72-.533-1.08-1.487-1.08-2.86v-4.16h-1.74v-2.48h1.74v-2.02l2.58-.78v2.8h2.26v2.48Zm7.439-2.76c1.347 0 2.494.513 3.44 1.54.96 1.013 1.44 2.26 1.44 3.74 0 1.48-.48 2.733-1.44 3.76-.946 1.013-2.093 1.52-3.44 1.52-1.4 0-2.48-.487-3.24-1.46v1.18h-2.58v-14h2.58v5.18c.76-.973 1.84-1.46 3.24-1.46Zm-2.46 7.32c.52.52 1.18.78 1.98.78s1.46-.26 1.98-.78c.534-.533.8-1.213.8-2.04s-.266-1.5-.8-2.02c-.52-.533-1.18-.8-1.98-.8s-1.46.267-1.98.8c-.52.52-.78 1.193-.78 2.02s.26 1.507.78 2.04Zm17.48 1.72c-1.027 1.013-2.28 1.52-3.76 1.52s-2.734-.507-3.76-1.52c-1.014-1.027-1.52-2.28-1.52-3.76s.506-2.727 1.52-3.74c1.026-1.027 2.28-1.54 3.76-1.54s2.733.513 3.76 1.54c1.026 1.013 1.54 2.26 1.54 3.74 0 1.48-.514 2.733-1.54 3.76Zm-5.7-1.78c.52.52 1.166.78 1.94.78.773 0 1.42-.26 1.94-.78s.78-1.18.78-1.98-.26-1.46-.78-1.98-1.167-.78-1.94-.78c-.774 0-1.42.26-1.94.78-.507.52-.76 1.18-.76 1.98s.253 1.46.76 1.98Zm14.36-4.5h-2.26v4.16c0 .347.087.6.26.76.173.16.427.253.76.28.333.013.747.007 1.24-.02v2.34c-1.773.2-3.027.033-3.76-.5-.72-.533-1.08-1.487-1.08-2.86v-4.16h-1.74v-2.48h1.74v-2.02l2.58-.78v2.8h2.26v2.48Zm3.784.36c0 .267.174.487.52.66.36.16.794.307 1.3.44.507.12 1.014.28 1.52.48.507.187.934.507 1.28.96.36.453.54 1.02.54 1.7 0 1.027-.386 1.82-1.16 2.38-.76.547-1.713.82-2.86.82-2.053 0-3.453-.793-4.2-2.38l2.24-1.26c.294.867.947 1.3 1.96 1.3.92 0 1.38-.287 1.38-.86 0-.267-.18-.48-.54-.64a6.675 6.675 0 0 0-1.28-.46c-.506-.133-1.013-.3-1.52-.5-.506-.2-.94-.513-1.3-.94-.346-.44-.52-.987-.52-1.64 0-.987.36-1.76 1.08-2.32.734-.573 1.64-.86 2.72-.86.814 0 1.554.187 2.22.56.667.36 1.194.88 1.58 1.56l-2.2 1.2c-.32-.68-.853-1.02-1.6-1.02-.333 0-.613.073-.84.22a.693.693 0 0 0-.32.6Z" fill="#FDAF1B"/><rect x="701.923" y="52.923" width="431.153" height="430.153" rx="215.077" stroke="#665E91" stroke-width="1.847"/><path d="m834.3 275-.84-2.52h-5.58l-.84 2.52h-2.98l4.9-14h3.42l4.92 14h-3Zm-5.54-5.1h3.84l-1.92-5.72-1.92 5.72Zm12.159-3.18c.24-.64.634-1.12 1.18-1.44.56-.32 1.18-.48 1.86-.48v2.88c-.786-.093-1.493.067-2.12.48-.613.413-.92 1.1-.92 2.06V275h-2.58v-10h2.58v1.72Zm10.343.76h-2.26v4.16c0 .347.086.6.26.76.173.16.426.253.76.28.333.013.746.007 1.24-.02V275c-1.774.2-3.027.033-3.76-.5-.72-.533-1.08-1.487-1.08-2.86v-4.16h-1.74V265h1.74v-2.02l2.58-.78v2.8h2.26v2.48Zm2.899-3.68c-.427 0-.8-.153-1.12-.46a1.566 1.566 0 0 1-.46-1.12c0-.427.153-.8.46-1.12.32-.32.693-.48 1.12-.48.44 0 .813.16 1.12.48.32.32.48.693.48 1.12 0 .427-.16.8-.48 1.12-.307.307-.68.46-1.12.46Zm-1.28 11.2v-10h2.58v10h-2.58Zm13.521-10v10h-2.58v-7.52h-2.94V275h-2.58v-7.52h-1.44V265h1.44v-.1c0-2.787 1.567-4.18 4.7-4.18.707 0 1.487.093 2.34.28v2.36a19.983 19.983 0 0 0-2.34-.16c-.72 0-1.253.127-1.6.38-.346.24-.52.68-.52 1.32v.1h5.52Zm6.913 10.28c-1.507 0-2.767-.507-3.78-1.52-1-1.013-1.5-2.267-1.5-3.76 0-1.493.5-2.747 1.5-3.76 1.013-1.013 2.273-1.52 3.78-1.52.973 0 1.86.233 2.66.7a4.652 4.652 0 0 1 1.82 1.88l-2.22 1.3c-.2-.413-.507-.74-.92-.98a2.59 2.59 0 0 0-1.36-.36c-.773 0-1.413.26-1.92.78-.507.507-.76 1.16-.76 1.96 0 .787.253 1.44.76 1.96.507.507 1.147.76 1.92.76.52 0 .98-.113 1.38-.34.413-.24.72-.567.92-.98l2.24 1.28a5.08 5.08 0 0 1-1.86 1.9c-.8.467-1.687.7-2.66.7Zm6.965-11.48c-.427 0-.8-.153-1.12-.46a1.566 1.566 0 0 1-.46-1.12c0-.427.153-.8.46-1.12.32-.32.693-.48 1.12-.48.44 0 .813.16 1.12.48.32.32.48.693.48 1.12 0 .427-.16.8-.48 1.12-.307.307-.68.46-1.12.46ZM879 275v-10h2.58v10H879Zm12.341-10h2.58v10h-2.58v-1.18c-.773.973-1.86 1.46-3.26 1.46-1.333 0-2.48-.507-3.44-1.52-.947-1.027-1.42-2.28-1.42-3.76s.473-2.727 1.42-3.74c.96-1.027 2.107-1.54 3.44-1.54 1.4 0 2.487.487 3.26 1.46V265Zm-4.76 7.04c.52.52 1.18.78 1.98.78s1.46-.26 1.98-.78c.533-.533.8-1.213.8-2.04s-.267-1.5-.8-2.02c-.52-.533-1.18-.8-1.98-.8s-1.46.267-1.98.8c-.52.52-.78 1.193-.78 2.02s.26 1.507.78 2.04Zm9.479 2.96v-14.6h2.58V275h-2.58Zm9.662-14h2.76v14h-2.76v-14Zm10.591 3.72c1.094 0 1.994.367 2.7 1.1.72.733 1.08 1.747 1.08 3.04V275h-2.58v-5.82c0-.667-.18-1.173-.54-1.52-.36-.36-.84-.54-1.44-.54-.666 0-1.2.207-1.6.62-.4.413-.6 1.033-.6 1.86v5.4h-2.58v-10h2.58v1.12c.627-.933 1.62-1.4 2.98-1.4Zm11.503 2.76h-2.26v4.16c0 .347.087.6.26.76.174.16.427.253.76.28.334.013.747.007 1.24-.02V275c-1.773.2-3.026.033-3.76-.5-.72-.533-1.08-1.487-1.08-2.86v-4.16h-1.74V265h1.74v-2.02l2.58-.78v2.8h2.26v2.48Zm3.487 3.58c.347 1.253 1.287 1.88 2.82 1.88.987 0 1.733-.333 2.24-1l2.08 1.2c-.987 1.427-2.44 2.14-4.36 2.14-1.653 0-2.98-.5-3.98-1.5s-1.5-2.26-1.5-3.78c0-1.507.493-2.76 1.48-3.76.987-1.013 2.253-1.52 3.8-1.52 1.467 0 2.673.507 3.62 1.52.96 1.013 1.44 2.267 1.44 3.76 0 .333-.033.687-.1 1.06h-7.54Zm-.04-2h5.1c-.147-.68-.453-1.187-.92-1.52a2.565 2.565 0 0 0-1.56-.5c-.693 0-1.267.18-1.72.54-.453.347-.753.84-.9 1.48Zm9.281 5.94v-14.6h2.58V275h-2.58Zm4.741 0v-14.6h2.58V275h-2.58Zm6.022-11.2c-.427 0-.8-.153-1.12-.46a1.566 1.566 0 0 1-.46-1.12c0-.427.153-.8.46-1.12.32-.32.693-.48 1.12-.48.44 0 .813.16 1.12.48.32.32.48.693.48 1.12 0 .427-.16.8-.48 1.12-.307.307-.68.46-1.12.46Zm-1.28 11.2v-10h2.58v10h-2.58Zm12.401-10h2.52v9.52c0 1.547-.513 2.727-1.54 3.54-1.013.813-2.24 1.22-3.68 1.22-1.08 0-2.033-.207-2.86-.62a4.347 4.347 0 0 1-1.88-1.82l2.2-1.26c.507.933 1.38 1.4 2.62 1.4.814 0 1.454-.213 1.92-.64.467-.427.7-1.033.7-1.82v-1.08c-.76 1.013-1.826 1.52-3.2 1.52-1.413 0-2.6-.493-3.56-1.48-.946-1-1.42-2.213-1.42-3.64 0-1.413.48-2.62 1.44-3.62s2.14-1.5 3.54-1.5c1.374 0 2.44.507 3.2 1.52V265Zm-4.82 6.82c.534.507 1.207.76 2.02.76.814 0 1.48-.253 2-.76.534-.52.8-1.18.8-1.98 0-.787-.266-1.433-.8-1.94-.52-.52-1.186-.78-2-.78-.813 0-1.486.26-2.02.78-.52.507-.78 1.153-.78 1.94 0 .8.26 1.46.78 1.98Zm11.66-.76c.346 1.253 1.286 1.88 2.82 1.88.986 0 1.733-.333 2.24-1l2.08 1.2c-.987 1.427-2.44 2.14-4.36 2.14-1.654 0-2.98-.5-3.98-1.5s-1.5-2.26-1.5-3.78c0-1.507.493-2.76 1.48-3.76.986-1.013 2.253-1.52 3.8-1.52 1.466 0 2.673.507 3.62 1.52.96 1.013 1.44 2.267 1.44 3.76 0 .333-.034.687-.1 1.06h-7.54Zm-.04-2h5.1c-.147-.68-.454-1.187-.92-1.52a2.57 2.57 0 0 0-1.56-.5c-.694 0-1.267.18-1.72.54-.454.347-.754.84-.9 1.48Zm14.841-4.34c1.093 0 1.993.367 2.7 1.1.72.733 1.08 1.747 1.08 3.04V275h-2.58v-5.82c0-.667-.18-1.173-.54-1.52-.36-.36-.84-.54-1.44-.54-.667 0-1.2.207-1.6.62-.4.413-.6 1.033-.6 1.86v5.4h-2.58v-10h2.58v1.12c.627-.933 1.62-1.4 2.98-1.4Zm10.543 10.56c-1.507 0-2.767-.507-3.78-1.52-1-1.013-1.5-2.267-1.5-3.76 0-1.493.5-2.747 1.5-3.76 1.013-1.013 2.273-1.52 3.78-1.52.973 0 1.86.233 2.66.7a4.652 4.652 0 0 1 1.82 1.88l-2.22 1.3c-.2-.413-.507-.74-.92-.98a2.59 2.59 0 0 0-1.36-.36c-.773 0-1.413.26-1.92.78-.507.507-.76 1.16-.76 1.96 0 .787.253 1.44.76 1.96.507.507 1.147.76 1.92.76.52 0 .98-.113 1.38-.34.413-.24.72-.567.92-.98l2.24 1.28a5.08 5.08 0 0 1-1.86 1.9c-.8.467-1.687.7-2.66.7Zm7.708-4.22c.35 1.253 1.29 1.88 2.82 1.88.99 0 1.73-.333 2.24-1l2.08 1.2c-.99 1.427-2.44 2.14-4.36 2.14-1.65 0-2.98-.5-3.98-1.5s-1.5-2.26-1.5-3.78c0-1.507.49-2.76 1.48-3.76.99-1.013 2.25-1.52 3.8-1.52 1.47 0 2.67.507 3.62 1.52.96 1.013 1.44 2.267 1.44 3.76 0 .333-.03.687-.1 1.06h-7.54Zm-.04-2h5.1c-.15-.68-.45-1.187-.92-1.52-.45-.333-.97-.5-1.56-.5-.69 0-1.27.18-1.72.54-.45.347-.75.84-.9 1.48Z" fill="#FDAF1B"/><rect x=".923" y=".923" width="705.153" height="705.153" rx="352.577" stroke="#665E91" stroke-width="1.847"/><path d="M263.3 346.5h2.76v14h-2.76v-14Zm10.592 3.72c1.093 0 1.993.367 2.7 1.1.72.733 1.08 1.747 1.08 3.04v6.14h-2.58v-5.82c0-.667-.18-1.173-.54-1.52-.36-.36-.84-.54-1.44-.54-.667 0-1.2.207-1.6.62-.4.413-.6 1.033-.6 1.86v5.4h-2.58v-10h2.58v1.12c.626-.933 1.62-1.4 2.98-1.4Zm11.503 2.76h-2.26v4.16c0 .347.086.6.26.76.173.16.426.253.76.28.333.013.746.007 1.24-.02v2.34c-1.774.2-3.027.033-3.76-.5-.72-.533-1.08-1.487-1.08-2.86v-4.16h-1.74v-2.48h1.74v-2.02l2.58-.78v2.8h2.26v2.48Zm3.486 3.58c.347 1.253 1.287 1.88 2.82 1.88.987 0 1.733-.333 2.24-1l2.08 1.2c-.987 1.427-2.44 2.14-4.36 2.14-1.653 0-2.98-.5-3.98-1.5s-1.5-2.26-1.5-3.78c0-1.507.493-2.76 1.48-3.76.987-1.013 2.253-1.52 3.8-1.52 1.467 0 2.673.507 3.62 1.52.96 1.013 1.44 2.267 1.44 3.76 0 .333-.033.687-.1 1.06h-7.54Zm-.04-2h5.1c-.147-.68-.453-1.187-.92-1.52a2.565 2.565 0 0 0-1.56-.5c-.693 0-1.267.18-1.72.54-.453.347-.753.84-.9 1.48Zm11.861-2.34c.24-.64.634-1.12 1.18-1.44.56-.32 1.18-.48 1.86-.48v2.88c-.786-.093-1.493.067-2.12.48-.613.413-.92 1.1-.92 2.06v4.78h-2.58v-10h2.58v1.72Zm11.578-1.72h2.58v10h-2.58v-1.18c-.773.973-1.86 1.46-3.26 1.46-1.333 0-2.48-.507-3.44-1.52-.947-1.027-1.42-2.28-1.42-3.76s.473-2.727 1.42-3.74c.96-1.027 2.107-1.54 3.44-1.54 1.4 0 2.487.487 3.26 1.46v-1.18Zm-4.76 7.04c.52.52 1.18.78 1.98.78s1.46-.26 1.98-.78c.533-.533.8-1.213.8-2.04s-.267-1.5-.8-2.02c-.52-.533-1.18-.8-1.98-.8s-1.46.267-1.98.8c-.52.52-.78 1.193-.78 2.02s.26 1.507.78 2.04Zm14.24 3.24c-1.507 0-2.767-.507-3.78-1.52-1-1.013-1.5-2.267-1.5-3.76 0-1.493.5-2.747 1.5-3.76 1.013-1.013 2.273-1.52 3.78-1.52.973 0 1.86.233 2.66.7a4.659 4.659 0 0 1 1.82 1.88l-2.22 1.3c-.2-.413-.507-.74-.92-.98-.4-.24-.854-.36-1.36-.36-.774 0-1.414.26-1.92.78-.507.507-.76 1.16-.76 1.96 0 .787.253 1.44.76 1.96.506.507 1.146.76 1.92.76.52 0 .98-.113 1.38-.34.413-.24.72-.567.92-.98l2.24 1.28a5.08 5.08 0 0 1-1.86 1.9c-.8.467-1.687.7-2.66.7Zm11.404-7.8h-2.26v4.16c0 .347.087.6.26.76.173.16.427.253.76.28.333.013.747.007 1.24-.02v2.34c-1.773.2-3.027.033-3.76-.5-.72-.533-1.08-1.487-1.08-2.86v-4.16h-1.74v-2.48h1.74v-2.02l2.58-.78v2.8h2.26v2.48Zm2.899-3.68c-.427 0-.8-.153-1.12-.46a1.566 1.566 0 0 1-.46-1.12c0-.427.153-.8.46-1.12.32-.32.693-.48 1.12-.48.44 0 .813.16 1.12.48.32.32.48.693.48 1.12 0 .427-.16.8-.48 1.12-.307.307-.68.46-1.12.46Zm-1.28 11.2v-10h2.58v10h-2.58Zm11.322-10h2.84l-3.8 10h-2.94l-3.8-10h2.84l2.42 7 2.44-7Zm5.673 6.06c.347 1.253 1.287 1.88 2.82 1.88.987 0 1.733-.333 2.24-1l2.08 1.2c-.987 1.427-2.44 2.14-4.36 2.14-1.653 0-2.98-.5-3.98-1.5s-1.5-2.26-1.5-3.78c0-1.507.493-2.76 1.48-3.76.987-1.013 2.253-1.52 3.8-1.52 1.467 0 2.673.507 3.62 1.52.96 1.013 1.44 2.267 1.44 3.76 0 .333-.033.687-.1 1.06h-7.54Zm-.04-2h5.1c-.147-.68-.453-1.187-.92-1.52a2.565 2.565 0 0 0-1.56-.5c-.693 0-1.267.18-1.72.54-.453.347-.753.84-.9 1.48Zm25.341-4.06h2.74l-3.18 10h-2.46l-1.84-6.06-1.84 6.06h-2.46l-3.18-10h2.74l1.7 6.14 1.82-6.14h2.44l1.82 6.16 1.7-6.16Zm5.72 6.06c.347 1.253 1.287 1.88 2.82 1.88.987 0 1.733-.333 2.24-1l2.08 1.2c-.987 1.427-2.44 2.14-4.36 2.14-1.653 0-2.98-.5-3.98-1.5s-1.5-2.26-1.5-3.78c0-1.507.493-2.76 1.48-3.76.987-1.013 2.253-1.52 3.8-1.52 1.467 0 2.673.507 3.62 1.52.96 1.013 1.44 2.267 1.44 3.76 0 .333-.033.687-.1 1.06h-7.54Zm-.04-2h5.1c-.147-.68-.453-1.187-.92-1.52a2.565 2.565 0 0 0-1.56-.5c-.693 0-1.267.18-1.72.54-.453.347-.753.84-.9 1.48Zm15.101-4.34c1.347 0 2.493.513 3.44 1.54.96 1.013 1.44 2.26 1.44 3.74 0 1.48-.48 2.733-1.44 3.76-.947 1.013-2.093 1.52-3.44 1.52-1.4 0-2.48-.487-3.24-1.46v1.18h-2.58v-14h2.58v5.18c.76-.973 1.84-1.46 3.24-1.46Zm-2.46 7.32c.52.52 1.18.78 1.98.78s1.46-.26 1.98-.78c.533-.533.8-1.213.8-2.04s-.267-1.5-.8-2.02c-.52-.533-1.18-.8-1.98-.8s-1.46.267-1.98.8c-.52.52-.78 1.193-.78 2.02s.26 1.507.78 2.04Zm11.125-4.2c0 .267.173.487.52.66.36.16.793.307 1.3.44.507.12 1.013.28 1.52.48a2.82 2.82 0 0 1 1.28.96c.36.453.54 1.02.54 1.7 0 1.027-.387 1.82-1.16 2.38-.76.547-1.713.82-2.86.82-2.053 0-3.453-.793-4.2-2.38l2.24-1.26c.293.867.947 1.3 1.96 1.3.92 0 1.38-.287 1.38-.86 0-.267-.18-.48-.54-.64a6.7 6.7 0 0 0-1.28-.46 13.42 13.42 0 0 1-1.52-.5c-.507-.2-.94-.513-1.3-.94-.347-.44-.52-.987-.52-1.64 0-.987.36-1.76 1.08-2.32.733-.573 1.64-.86 2.72-.86a4.47 4.47 0 0 1 2.22.56c.667.36 1.193.88 1.58 1.56l-2.2 1.2c-.32-.68-.853-1.02-1.6-1.02-.333 0-.613.073-.84.22a.693.693 0 0 0-.32.6Zm7.899-4.04c-.427 0-.8-.153-1.12-.46a1.566 1.566 0 0 1-.46-1.12c0-.427.153-.8.46-1.12.32-.32.693-.48 1.12-.48.44 0 .813.16 1.12.48.32.32.48.693.48 1.12 0 .427-.16.8-.48 1.12-.307.307-.68.46-1.12.46Zm-1.28 11.2v-10h2.58v10h-2.58Zm10.461-7.52h-2.26v4.16c0 .347.087.6.26.76.174.16.427.253.76.28.334.013.747.007 1.24-.02v2.34c-1.773.2-3.026.033-3.76-.5-.72-.533-1.08-1.487-1.08-2.86v-4.16h-1.74v-2.48h1.74v-2.02l2.58-.78v2.8h2.26v2.48Zm3.487 3.58c.347 1.253 1.287 1.88 2.82 1.88.987 0 1.733-.333 2.24-1l2.08 1.2c-.987 1.427-2.44 2.14-4.36 2.14-1.653 0-2.98-.5-3.98-1.5s-1.5-2.26-1.5-3.78c0-1.507.493-2.76 1.48-3.76.987-1.013 2.253-1.52 3.8-1.52 1.467 0 2.673.507 3.62 1.52.96 1.013 1.44 2.267 1.44 3.76 0 .333-.033.687-.1 1.06h-7.54Zm-.04-2h5.1c-.147-.68-.453-1.187-.92-1.52a2.565 2.565 0 0 0-1.56-.5c-.693 0-1.267.18-1.72.54-.453.347-.753.84-.9 1.48Zm11.27-1.22c0 .267.174.487.52.66.36.16.794.307 1.3.44.507.12 1.014.28 1.52.48.507.187.934.507 1.28.96.36.453.54 1.02.54 1.7 0 1.027-.386 1.82-1.16 2.38-.76.547-1.713.82-2.86.82-2.053 0-3.453-.793-4.2-2.38l2.24-1.26c.294.867.947 1.3 1.96 1.3.92 0 1.38-.287 1.38-.86 0-.267-.18-.48-.54-.64a6.675 6.675 0 0 0-1.28-.46c-.506-.133-1.013-.3-1.52-.5-.506-.2-.94-.513-1.3-.94-.346-.44-.52-.987-.52-1.64 0-.987.36-1.76 1.08-2.32.734-.573 1.64-.86 2.72-.86.814 0 1.554.187 2.22.56.667.36 1.194.88 1.58 1.56l-2.2 1.2c-.32-.68-.853-1.02-1.6-1.02-.333 0-.613.073-.84.22a.693.693 0 0 0-.32.6Z" fill="#FDAF1B"/><rect x="1098.92" y="323.923" width="171.153" height="171.153" rx="85.576" stroke="#665E91" stroke-width="1.847"/><path d="M1116.26 409.24c1.23.707 1.84 1.773 1.84 3.2 0 1.187-.42 2.16-1.26 2.92-.84.76-1.87 1.14-3.1 1.14h-5.94v-14h5.52c1.2 0 2.21.373 3.02 1.12.83.733 1.24 1.673 1.24 2.82 0 1.16-.44 2.093-1.32 2.8Zm-2.94-4.16h-2.76v3.08h2.76a1.4 1.4 0 0 0 1.06-.44c.29-.293.44-.66.44-1.1 0-.44-.14-.807-.42-1.1-.28-.293-.64-.44-1.08-.44Zm.42 8.84c.47 0 .85-.153 1.16-.46.31-.32.46-.72.46-1.2 0-.467-.15-.853-.46-1.16-.31-.32-.69-.48-1.16-.48h-3.18v3.3h3.18Zm5.85 2.58v-14.6h2.58v14.6h-2.58Zm13.26-1.24c-1.03 1.013-2.28 1.52-3.76 1.52s-2.73-.507-3.76-1.52c-1.01-1.027-1.52-2.28-1.52-3.76s.51-2.727 1.52-3.74c1.03-1.027 2.28-1.54 3.76-1.54s2.73.513 3.76 1.54c1.03 1.013 1.54 2.26 1.54 3.74 0 1.48-.51 2.733-1.54 3.76Zm-5.7-1.78c.52.52 1.17.78 1.94.78s1.42-.26 1.94-.78.78-1.18.78-1.98-.26-1.46-.78-1.98-1.17-.78-1.94-.78-1.42.26-1.94.78c-.51.52-.76 1.18-.76 1.98s.25 1.46.76 1.98Zm13.62 3.3c-1.51 0-2.77-.507-3.78-1.52-1-1.013-1.5-2.267-1.5-3.76 0-1.493.5-2.747 1.5-3.76 1.01-1.013 2.27-1.52 3.78-1.52.97 0 1.86.233 2.66.7.8.467 1.4 1.093 1.82 1.88l-2.22 1.3c-.2-.413-.51-.74-.92-.98-.4-.24-.86-.36-1.36-.36-.78 0-1.42.26-1.92.78-.51.507-.76 1.16-.76 1.96 0 .787.25 1.44.76 1.96.5.507 1.14.76 1.92.76.52 0 .98-.113 1.38-.34.41-.24.72-.567.92-.98l2.24 1.28a5.08 5.08 0 0 1-1.86 1.9c-.8.467-1.69.7-2.66.7Zm14.9-.28h-3l-3.64-4.54v4.54h-2.58v-14h2.58v8.4l3.44-4.4h3.08l-4.02 4.94 4.14 5.06Zm5.13.28c-1.51 0-2.77-.507-3.78-1.52-1-1.013-1.5-2.267-1.5-3.76 0-1.493.5-2.747 1.5-3.76 1.01-1.013 2.27-1.52 3.78-1.52.97 0 1.86.233 2.66.7.8.467 1.4 1.093 1.82 1.88l-2.22 1.3c-.2-.413-.51-.74-.92-.98-.4-.24-.86-.36-1.36-.36-.78 0-1.42.26-1.92.78-.51.507-.76 1.16-.76 1.96 0 .787.25 1.44.76 1.96.5.507 1.14.76 1.92.76.52 0 .98-.113 1.38-.34.41-.24.72-.567.92-.98l2.24 1.28a5.08 5.08 0 0 1-1.86 1.9c-.8.467-1.69.7-2.66.7Zm11.24-10.56c1.09 0 1.99.367 2.7 1.1.72.733 1.08 1.747 1.08 3.04v6.14h-2.58v-5.82c0-.667-.18-1.173-.54-1.52-.36-.36-.84-.54-1.44-.54-.67 0-1.2.207-1.6.62-.4.413-.6 1.033-.6 1.86v5.4h-2.58v-14h2.58v5.12c.63-.933 1.62-1.4 2.98-1.4Zm13.38.28h2.58v10h-2.58v-1.18c-.77.973-1.86 1.46-3.26 1.46-1.33 0-2.48-.507-3.44-1.52-.94-1.027-1.42-2.28-1.42-3.76s.48-2.727 1.42-3.74c.96-1.027 2.11-1.54 3.44-1.54 1.4 0 2.49.487 3.26 1.46v-1.18Zm-4.76 7.04c.52.52 1.18.78 1.98.78s1.46-.26 1.98-.78c.54-.533.8-1.213.8-2.04s-.26-1.5-.8-2.02c-.52-.533-1.18-.8-1.98-.8s-1.46.267-1.98.8c-.52.52-.78 1.193-.78 2.02s.26 1.507.78 2.04Zm10.76-8.24c-.42 0-.8-.153-1.12-.46-.3-.32-.46-.693-.46-1.12 0-.427.16-.8.46-1.12.32-.32.7-.48 1.12-.48.44 0 .82.16 1.12.48.32.32.48.693.48 1.12 0 .427-.16.8-.48 1.12-.3.307-.68.46-1.12.46Zm-1.28 11.2v-10h2.58v10h-2.58Zm10.3-10.28c1.1 0 2 .367 2.7 1.1.72.733 1.08 1.747 1.08 3.04v6.14h-2.58v-5.82c0-.667-.18-1.173-.54-1.52-.36-.36-.84-.54-1.44-.54-.66 0-1.2.207-1.6.62-.4.413-.6 1.033-.6 1.86v5.4h-2.58v-10h2.58v1.12c.63-.933 1.62-1.4 2.98-1.4Zm22.45 9.48-2.2 1.26-1.28-1.38c-1.08.8-2.34 1.2-3.76 1.2-1.44 0-2.62-.373-3.54-1.12-.91-.76-1.36-1.773-1.36-3.04 0-.827.2-1.593.6-2.3.4-.707.98-1.28 1.74-1.72-.46-.72-.68-1.5-.68-2.34 0-1.187.41-2.153 1.24-2.9.82-.76 1.87-1.14 3.14-1.14 1 0 1.89.26 2.68.78.8.507 1.39 1.247 1.78 2.22l-2.36 1.36c-.39-1.12-1.08-1.68-2.06-1.68-.48 0-.88.14-1.2.42-.31.28-.46.633-.46 1.06 0 .373.08.713.26 1.02.18.307.48.673.88 1.1l3 3.28c.29-.627.52-1.4.68-2.32l2.32 1.32c-.26 1.08-.66 2.06-1.22 2.94l1.8 1.98Zm-7.06-1.46c.69 0 1.31-.167 1.86-.5l-3.02-3.28c-.03-.027-.04-.047-.04-.06-.74.453-1.1 1.1-1.1 1.94 0 .573.19 1.033.58 1.38.4.347.97.52 1.72.52Zm21.47-11.74h2.76v14h-2.1l-6-8.56v8.56h-2.76v-14h2.1l6 8.54v-8.54Zm13.52 2.64h-5.6v3.32h5.44v2.64h-5.44v5.4h-2.76v-14h8.36v2.64Zm11.07-2.64v2.64h-3.78v11.36h-2.76v-11.36h-3.76v-2.64h10.3Z" fill="#FDAF1B"/><rect x="930.923" y="493.923" width="430.153" height="430.153" rx="215.077" stroke="#665E91" stroke-width="1.847"/><path d="M1035.5 702v14h-2.74v-9.08l-3.94 6.5h-.32l-3.94-6.48V716h-2.76v-14h2.84l4.02 6.62 4-6.62h2.84Zm10.81 12.76c-1.03 1.013-2.28 1.52-3.76 1.52s-2.73-.507-3.76-1.52c-1.01-1.027-1.52-2.28-1.52-3.76s.51-2.727 1.52-3.74c1.03-1.027 2.28-1.54 3.76-1.54s2.73.513 3.76 1.54c1.03 1.013 1.54 2.26 1.54 3.74 0 1.48-.51 2.733-1.54 3.76Zm-5.7-1.78c.52.52 1.17.78 1.94.78s1.42-.26 1.94-.78.78-1.18.78-1.98-.26-1.46-.78-1.98-1.17-.78-1.94-.78-1.42.26-1.94.78c-.51.52-.76 1.18-.76 1.98s.25 1.46.76 1.98Zm14.67-7.26c1.35 0 2.5.513 3.44 1.54.96 1.013 1.44 2.26 1.44 3.74 0 1.48-.48 2.733-1.44 3.76-.94 1.013-2.09 1.52-3.44 1.52-1.4 0-2.48-.487-3.24-1.46V716h-2.58v-14h2.58v5.18c.76-.973 1.84-1.46 3.24-1.46Zm-2.46 7.32c.52.52 1.18.78 1.98.78s1.46-.26 1.98-.78c.54-.533.8-1.213.8-2.04s-.26-1.5-.8-2.02c-.52-.533-1.18-.8-1.98-.8s-1.46.267-1.98.8c-.52.52-.78 1.193-.78 2.02s.26 1.507.78 2.04Zm10.24-8.24c-.42 0-.8-.153-1.12-.46-.3-.32-.46-.693-.46-1.12 0-.427.16-.8.46-1.12.32-.32.7-.48 1.12-.48.44 0 .82.16 1.12.48.32.32.48.693.48 1.12 0 .427-.16.8-.48 1.12-.3.307-.68.46-1.12.46Zm-1.28 11.2v-10h2.58v10h-2.58Zm4.74 0v-14.6h2.58V716h-2.58Zm6.93-3.94c.34 1.253 1.28 1.88 2.82 1.88.98 0 1.73-.333 2.24-1l2.08 1.2c-.99 1.427-2.44 2.14-4.36 2.14-1.66 0-2.98-.5-3.98-1.5s-1.5-2.26-1.5-3.78c0-1.507.49-2.76 1.48-3.76.98-1.013 2.25-1.52 3.8-1.52 1.46 0 2.67.507 3.62 1.52.96 1.013 1.44 2.267 1.44 3.76 0 .333-.04.687-.1 1.06h-7.54Zm-.04-2h5.1c-.15-.68-.46-1.187-.92-1.52-.46-.333-.98-.5-1.56-.5-.7 0-1.27.18-1.72.54-.46.347-.76.84-.9 1.48Zm21.68-4.06h2.58v10h-2.58v-1.18c-.78.973-1.86 1.46-3.26 1.46-1.34 0-2.48-.507-3.44-1.52-.95-1.027-1.42-2.28-1.42-3.76s.47-2.727 1.42-3.74c.96-1.027 2.1-1.54 3.44-1.54 1.4 0 2.48.487 3.26 1.46V706Zm-4.76 7.04c.52.52 1.18.78 1.98.78s1.46-.26 1.98-.78c.53-.533.8-1.213.8-2.04s-.27-1.5-.8-2.02c-.52-.533-1.18-.8-1.98-.8s-1.46.267-1.98.8c-.52.52-.78 1.193-.78 2.02s.26 1.507.78 2.04Zm15.3-7.32c1.34 0 2.49.513 3.44 1.54.96 1.013 1.44 2.26 1.44 3.74 0 1.48-.48 2.733-1.44 3.76-.95 1.013-2.1 1.52-3.44 1.52-1.4 0-2.48-.487-3.24-1.46V720h-2.58v-14h2.58v1.18c.76-.973 1.84-1.46 3.24-1.46Zm-2.46 7.32c.52.52 1.18.78 1.98.78s1.46-.26 1.98-.78c.53-.533.8-1.213.8-2.04s-.27-1.5-.8-2.02c-.52-.533-1.18-.8-1.98-.8s-1.46.267-1.98.8c-.52.52-.78 1.193-.78 2.02s.26 1.507.78 2.04Zm14.78-7.32c1.34 0 2.49.513 3.44 1.54.96 1.013 1.44 2.26 1.44 3.74 0 1.48-.48 2.733-1.44 3.76-.95 1.013-2.1 1.52-3.44 1.52-1.4 0-2.48-.487-3.24-1.46V720h-2.58v-14h2.58v1.18c.76-.973 1.84-1.46 3.24-1.46Zm-2.46 7.32c.52.52 1.18.78 1.98.78s1.46-.26 1.98-.78c.53-.533.8-1.213.8-2.04s-.27-1.5-.8-2.02c-.52-.533-1.18-.8-1.98-.8s-1.46.267-1.98.8c-.52.52-.78 1.193-.78 2.02s.26 1.507.78 2.04Zm11.12-4.2c0 .267.17.487.52.66.36.16.79.307 1.3.44.51.12 1.01.28 1.52.48.51.187.93.507 1.28.96.36.453.54 1.02.54 1.7 0 1.027-.39 1.82-1.16 2.38-.76.547-1.71.82-2.86.82-2.05 0-3.45-.793-4.2-2.38l2.24-1.26c.29.867.95 1.3 1.96 1.3.92 0 1.38-.287 1.38-.86 0-.267-.18-.48-.54-.64a6.7 6.7 0 0 0-1.28-.46c-.51-.133-1.01-.3-1.52-.5s-.94-.513-1.3-.94c-.35-.44-.52-.987-.52-1.64 0-.987.36-1.76 1.08-2.32.73-.573 1.64-.86 2.72-.86.81 0 1.55.187 2.22.56.67.36 1.19.88 1.58 1.56l-2.2 1.2c-.32-.68-.85-1.02-1.6-1.02-.33 0-.61.073-.84.22a.7.7 0 0 0-.32.6Zm19.12-2.84h2.58v10h-2.58v-1.18c-.78.973-1.86 1.46-3.26 1.46-1.34 0-2.48-.507-3.44-1.52-.95-1.027-1.42-2.28-1.42-3.76s.47-2.727 1.42-3.74c.96-1.027 2.1-1.54 3.44-1.54 1.4 0 2.48.487 3.26 1.46V706Zm-4.76 7.04c.52.52 1.18.78 1.98.78s1.46-.26 1.98-.78c.53-.533.8-1.213.8-2.04s-.27-1.5-.8-2.02c-.52-.533-1.18-.8-1.98-.8s-1.46.267-1.98.8c-.52.52-.78 1.193-.78 2.02s.26 1.507.78 2.04Zm15.04-7.32c1.09 0 1.99.367 2.7 1.1.72.733 1.08 1.747 1.08 3.04V716h-2.58v-5.82c0-.667-.18-1.173-.54-1.52-.36-.36-.84-.54-1.44-.54-.67 0-1.2.207-1.6.62-.4.413-.6 1.033-.6 1.86v5.4h-2.58v-10h2.58v1.12c.62-.933 1.62-1.4 2.98-1.4Zm13.36-3.72h2.58v14h-2.58v-1.18c-.76.973-1.84 1.46-3.24 1.46-1.35 0-2.5-.507-3.46-1.52-.95-1.027-1.42-2.28-1.42-3.76s.47-2.727 1.42-3.74c.96-1.027 2.11-1.54 3.46-1.54 1.4 0 2.48.487 3.24 1.46V702Zm-4.76 11.04c.53.52 1.2.78 2 .78s1.46-.26 1.98-.78c.52-.533.78-1.213.78-2.04s-.26-1.5-.78-2.02c-.52-.533-1.18-.8-1.98-.8s-1.47.267-2 .8c-.52.52-.78 1.193-.78 2.02s.26 1.507.78 2.04Zm25.36-7.32c1.15 0 2.06.373 2.74 1.12.69.747 1.04 1.747 1.04 3V716h-2.58v-5.98c0-.6-.15-1.067-.44-1.4-.29-.333-.71-.5-1.24-.5-.59 0-1.05.193-1.38.58-.32.387-.48.947-.48 1.68V716h-2.58v-5.98c0-.6-.15-1.067-.44-1.4-.29-.333-.71-.5-1.24-.5-.57 0-1.03.193-1.38.58-.33.387-.5.947-.5 1.68V716h-2.58v-10h2.58v1.06c.6-.893 1.53-1.34 2.78-1.34 1.23 0 2.13.48 2.72 1.44.67-.96 1.66-1.44 2.98-1.44Zm7.05-.92c-.43 0-.8-.153-1.12-.46-.31-.32-.46-.693-.46-1.12 0-.427.15-.8.46-1.12.32-.32.69-.48 1.12-.48.44 0 .81.16 1.12.48.32.32.48.693.48 1.12 0 .427-.16.8-.48 1.12-.31.307-.68.46-1.12.46Zm-1.28 11.2v-10h2.58v10h-2.58Zm10.3-10.28c1.1 0 2 .367 2.7 1.1.72.733 1.08 1.747 1.08 3.04V716h-2.58v-5.82c0-.667-.18-1.173-.54-1.52-.36-.36-.84-.54-1.44-.54-.66 0-1.2.207-1.6.62-.4.413-.6 1.033-.6 1.86v5.4h-2.58v-10h2.58v1.12c.63-.933 1.62-1.4 2.98-1.4Zm7.07-.92c-.43 0-.8-.153-1.12-.46-.31-.32-.46-.693-.46-1.12 0-.427.15-.8.46-1.12.32-.32.69-.48 1.12-.48.44 0 .81.16 1.12.48.32.32.48.693.48 1.12 0 .427-.16.8-.48 1.12-.31.307-.68.46-1.12.46Zm-1.28 11.2v-10h2.58v10h-2.58Zm4.86-4.8v-2.48h7.5v2.48h-7.5Zm17.37-5.2h2.58v10h-2.58v-1.18c-.77.973-1.86 1.46-3.26 1.46-1.33 0-2.48-.507-3.44-1.52-.94-1.027-1.42-2.28-1.42-3.76s.48-2.727 1.42-3.74c.96-1.027 2.11-1.54 3.44-1.54 1.4 0 2.49.487 3.26 1.46V706Zm-4.76 7.04c.52.52 1.18.78 1.98.78s1.46-.26 1.98-.78c.54-.533.8-1.213.8-2.04s-.26-1.5-.8-2.02c-.52-.533-1.18-.8-1.98-.8s-1.46.267-1.98.8c-.52.52-.78 1.193-.78 2.02s.26 1.507.78 2.04Zm15.3-7.32c1.35 0 2.5.513 3.44 1.54.96 1.013 1.44 2.26 1.44 3.74 0 1.48-.48 2.733-1.44 3.76-.94 1.013-2.09 1.52-3.44 1.52-1.4 0-2.48-.487-3.24-1.46V720h-2.58v-14h2.58v1.18c.76-.973 1.84-1.46 3.24-1.46Zm-2.46 7.32c.52.52 1.18.78 1.98.78s1.46-.26 1.98-.78c.54-.533.8-1.213.8-2.04s-.26-1.5-.8-2.02c-.52-.533-1.18-.8-1.98-.8s-1.46.267-1.98.8c-.52.52-.78 1.193-.78 2.02s.26 1.507.78 2.04Zm14.78-7.32c1.35 0 2.5.513 3.44 1.54.96 1.013 1.44 2.26 1.44 3.74 0 1.48-.48 2.733-1.44 3.76-.94 1.013-2.09 1.52-3.44 1.52-1.4 0-2.48-.487-3.24-1.46V720h-2.58v-14h2.58v1.18c.76-.973 1.84-1.46 3.24-1.46Zm-2.46 7.32c.52.52 1.18.78 1.98.78s1.46-.26 1.98-.78c.54-.533.8-1.213.8-2.04s-.26-1.5-.8-2.02c-.52-.533-1.18-.8-1.98-.8s-1.46.267-1.98.8c-.52.52-.78 1.193-.78 2.02s.26 1.507.78 2.04Zm11.13-4.2c0 .267.17.487.52.66.36.16.79.307 1.3.44.5.12 1.01.28 1.52.48.5.187.93.507 1.28.96.36.453.54 1.02.54 1.7 0 1.027-.39 1.82-1.16 2.38-.76.547-1.72.82-2.86.82-2.06 0-3.46-.793-4.2-2.38l2.24-1.26c.29.867.94 1.3 1.96 1.3.92 0 1.38-.287 1.38-.86 0-.267-.18-.48-.54-.64a6.96 6.96 0 0 0-1.28-.46c-.51-.133-1.02-.3-1.52-.5-.51-.2-.94-.513-1.3-.94-.35-.44-.52-.987-.52-1.64 0-.987.36-1.76 1.08-2.32.73-.573 1.64-.86 2.72-.86.81 0 1.55.187 2.22.56.66.36 1.19.88 1.58 1.56l-2.2 1.2c-.32-.68-.86-1.02-1.6-1.02-.34 0-.62.073-.84.22a.677.677 0 0 0-.32.6Z" fill="#FDAF1B"/><rect x="495.923" y="769.923" width="573.153" height="574.153" rx="286.577" stroke="#665E91" stroke-width="1.847"/><path d="m705.3 1064-.84-2.52h-5.58l-.84 2.52h-2.98l4.9-14h3.42l4.92 14h-3Zm-5.54-5.1h3.84l-1.92-5.72-1.92 5.72Zm16.082-4.9h2.58v10h-2.58v-1.12c-.627.93-1.62 1.4-2.98 1.4-1.094 0-2-.37-2.72-1.1-.707-.73-1.06-1.75-1.06-3.04V1054h2.58v5.82c0 .67.18 1.18.54 1.54.36.35.84.52 1.44.52.666 0 1.2-.21 1.6-.62.4-.41.6-1.03.6-1.86v-5.4Zm12.403 0h2.52v9.52c0 1.55-.514 2.73-1.54 3.54-1.014.81-2.24 1.22-3.68 1.22-1.08 0-2.034-.21-2.86-.62a4.325 4.325 0 0 1-1.88-1.82l2.2-1.26c.506.93 1.38 1.4 2.62 1.4.813 0 1.453-.21 1.92-.64.466-.43.7-1.03.7-1.82v-1.08c-.76 1.01-1.827 1.52-3.2 1.52-1.414 0-2.6-.49-3.56-1.48-.947-1-1.42-2.21-1.42-3.64 0-1.41.48-2.62 1.44-3.62s2.14-1.5 3.54-1.5c1.373 0 2.44.51 3.2 1.52V1054Zm-4.82 6.82c.533.51 1.206.76 2.02.76.813 0 1.48-.25 2-.76.533-.52.8-1.18.8-1.98 0-.79-.267-1.43-.8-1.94-.52-.52-1.187-.78-2-.78-.814 0-1.487.26-2.02.78-.52.51-.78 1.15-.78 1.94 0 .8.26 1.46.78 1.98Zm20.539-7.1c1.147 0 2.06.37 2.74 1.12.694.75 1.04 1.75 1.04 3v6.16h-2.58v-5.98c0-.6-.146-1.07-.44-1.4-.293-.33-.706-.5-1.24-.5-.586 0-1.046.19-1.38.58-.32.39-.48.95-.48 1.68v5.62h-2.58v-5.98c0-.6-.146-1.07-.44-1.4-.293-.33-.706-.5-1.24-.5-.573 0-1.033.19-1.38.58-.333.39-.5.95-.5 1.68v5.62h-2.58v-10h2.58v1.06c.6-.89 1.527-1.34 2.78-1.34 1.227 0 2.134.48 2.72 1.44.667-.96 1.66-1.44 2.98-1.44Zm7.951 6.34c.347 1.25 1.287 1.88 2.82 1.88.987 0 1.734-.33 2.24-1l2.08 1.2c-.986 1.43-2.44 2.14-4.36 2.14-1.653 0-2.98-.5-3.98-1.5s-1.5-2.26-1.5-3.78c0-1.51.494-2.76 1.48-3.76.987-1.01 2.254-1.52 3.8-1.52 1.467 0 2.674.51 3.62 1.52.96 1.01 1.44 2.27 1.44 3.76 0 .33-.033.69-.1 1.06h-7.54Zm-.04-2h5.1c-.146-.68-.453-1.19-.92-1.52-.453-.33-.973-.5-1.56-.5-.693 0-1.266.18-1.72.54-.453.35-.753.84-.9 1.48Zm14.842-4.34c1.093 0 1.993.37 2.7 1.1.72.73 1.08 1.75 1.08 3.04v6.14h-2.58v-5.82c0-.67-.18-1.17-.54-1.52-.36-.36-.84-.54-1.44-.54-.667 0-1.2.21-1.6.62-.4.41-.6 1.03-.6 1.86v5.4h-2.58v-10h2.58v1.12c.626-.93 1.62-1.4 2.98-1.4Zm11.503 2.76h-2.26v4.16c0 .35.086.6.26.76.173.16.426.25.76.28.333.01.746.01 1.24-.02v2.34c-1.774.2-3.027.03-3.76-.5-.72-.53-1.08-1.49-1.08-2.86v-4.16h-1.74V1054h1.74v-2.02l2.58-.78v2.8h2.26v2.48Zm3.486 3.58c.347 1.25 1.287 1.88 2.82 1.88.987 0 1.733-.33 2.24-1l2.08 1.2c-.987 1.43-2.44 2.14-4.36 2.14-1.653 0-2.98-.5-3.98-1.5s-1.5-2.26-1.5-3.78c0-1.51.493-2.76 1.48-3.76.987-1.01 2.253-1.52 3.8-1.52 1.467 0 2.673.51 3.62 1.52.96 1.01 1.44 2.27 1.44 3.76 0 .33-.033.69-.1 1.06h-7.54Zm-.04-2h5.1c-.147-.68-.453-1.19-.92-1.52-.453-.33-.973-.5-1.56-.5-.693 0-1.267.18-1.72.54-.453.35-.753.84-.9 1.48Zm16.783-8.06h2.58v14h-2.58v-1.18c-.76.97-1.84 1.46-3.24 1.46-1.347 0-2.5-.51-3.46-1.52-.947-1.03-1.42-2.28-1.42-3.76s.473-2.73 1.42-3.74c.96-1.03 2.113-1.54 3.46-1.54 1.4 0 2.48.49 3.24 1.46V1050Zm-4.76 11.04c.533.52 1.2.78 2 .78s1.46-.26 1.98-.78c.52-.53.78-1.21.78-2.04 0-.83-.26-1.5-.78-2.02-.52-.53-1.18-.8-1.98-.8s-1.467.27-2 .8c-.52.52-.78 1.19-.78 2.02 0 .83.26 1.51.78 2.04Zm22.1 2.96-2.82-4.86h-2.1v4.86h-2.76v-14h5.6c1.293 0 2.393.45 3.3 1.36.906.91 1.36 2 1.36 3.28 0 .87-.247 1.67-.74 2.42a4.663 4.663 0 0 1-1.96 1.66l3.1 5.28h-2.98Zm-4.92-11.42v4.14h2.84c.52 0 .966-.2 1.34-.6.373-.41.56-.91.56-1.48s-.187-1.06-.56-1.46c-.374-.4-.82-.6-1.34-.6h-2.84Zm10.877 7.48c.347 1.25 1.287 1.88 2.82 1.88.987 0 1.733-.33 2.24-1l2.08 1.2c-.987 1.43-2.44 2.14-4.36 2.14-1.653 0-2.98-.5-3.98-1.5s-1.5-2.26-1.5-3.78c0-1.51.493-2.76 1.48-3.76.987-1.01 2.253-1.52 3.8-1.52 1.467 0 2.673.51 3.62 1.52.96 1.01 1.44 2.27 1.44 3.76 0 .33-.033.69-.1 1.06h-7.54Zm-.04-2h5.1c-.147-.68-.453-1.19-.92-1.52-.453-.33-.973-.5-1.56-.5-.693 0-1.267.18-1.72.54-.453.35-.753.84-.9 1.48Zm16.803-4.06h2.58v10h-2.58v-1.18c-.773.97-1.86 1.46-3.26 1.46-1.333 0-2.48-.51-3.44-1.52-.947-1.03-1.42-2.28-1.42-3.76s.473-2.73 1.42-3.74c.96-1.03 2.107-1.54 3.44-1.54 1.4 0 2.487.49 3.26 1.46V1054Zm-4.76 7.04c.52.52 1.18.78 1.98.78s1.46-.26 1.98-.78c.533-.53.8-1.21.8-2.04 0-.83-.267-1.5-.8-2.02-.52-.53-1.18-.8-1.98-.8s-1.46.27-1.98.8c-.52.52-.78 1.19-.78 2.02 0 .83.26 1.51.78 2.04Zm9.479 2.96v-14.6h2.58v14.6h-2.58Zm6.022-11.2c-.427 0-.8-.15-1.12-.46-.307-.32-.46-.69-.46-1.12 0-.43.153-.8.46-1.12.32-.32.693-.48 1.12-.48.44 0 .813.16 1.12.48.32.32.48.69.48 1.12 0 .43-.16.8-.48 1.12-.307.31-.68.46-1.12.46Zm-1.28 11.2v-10h2.58v10h-2.58Zm10.461-7.52h-2.26v4.16c0 .35.087.6.26.76.174.16.427.25.76.28.334.01.747.01 1.24-.02v2.34c-1.773.2-3.026.03-3.76-.5-.72-.53-1.08-1.49-1.08-2.86v-4.16h-1.74V1054h1.74v-2.02l2.58-.78v2.8h2.26v2.48Zm8.354-2.48h2.76l-3.64 10c-.52 1.44-1.213 2.48-2.08 3.12-.853.65-1.92.95-3.2.88v-2.4c.693.01 1.24-.13 1.64-.44.413-.31.74-.8.98-1.48l-4.1-9.68h2.82l2.6 6.72 2.22-6.72Z" fill="#FDAF1B"/><rect x="482.923" y="648.923" width="183.153" height="183.153" rx="91.576" stroke="#665E91" stroke-width="1.847"/><path d="M541.5 733.5v14h-2.74v-9.08l-3.94 6.5h-.32l-3.94-6.48v9.06h-2.76v-14h2.84l4.02 6.62 4-6.62h2.84Zm4.469 10.06c.36 1.32 1.46 1.88 2.82 1.88 1 0 1.8-.42 2.24-1l2.08 1.2c-.94 1.36-2.44 2.14-4.36 2.14-3.36 0-5.48-2.3-5.48-5.28 0-2.98 2.14-5.28 5.28-5.28 2.96 0 5.06 2.34 5.06 5.28 0 .38-.04.72-.1 1.06h-7.54Zm-.04-2h5.1c-.32-1.44-1.4-2.02-2.48-2.02-1.38 0-2.32.74-2.62 2.02Zm14.708-1.58h-2.26v4.16c0 1.08.78 1.1 2.26 1.02v2.34c-3.62.4-4.84-.66-4.84-3.36v-4.16h-1.74v-2.48h1.74v-2.02l2.58-.78v2.8h2.26v2.48Zm8.906-2.48h2.58v10h-2.58v-1.18c-.72.9-1.8 1.46-3.26 1.46-2.66 0-4.86-2.3-4.86-5.28 0-2.98 2.2-5.28 4.86-5.28 1.46 0 2.54.56 3.26 1.46v-1.18Zm-2.78 7.82c1.6 0 2.78-1.14 2.78-2.82s-1.18-2.82-2.78-2.82c-1.58 0-2.76 1.14-2.76 2.82s1.18 2.82 2.76 2.82Zm14.08-7.82h2.84l-3.8 10h-2.94l-3.8-10h2.84l2.42 7 2.44-7Zm5.673 6.06c.36 1.32 1.46 1.88 2.82 1.88 1 0 1.8-.42 2.24-1l2.08 1.2c-.94 1.36-2.44 2.14-4.36 2.14-3.36 0-5.48-2.3-5.48-5.28 0-2.98 2.14-5.28 5.28-5.28 2.96 0 5.06 2.34 5.06 5.28 0 .38-.04.72-.1 1.06h-7.54Zm-.04-2h5.1c-.32-1.44-1.4-2.02-2.48-2.02-1.38 0-2.32.74-2.62 2.02Zm11.861-2.34c.52-1.36 1.78-1.92 3.04-1.92v2.88c-1.34-.16-3.04.44-3.04 2.54v4.78h-2.58v-10h2.58v1.72Zm6.417 1.12c0 1.48 5.16.56 5.16 4.24 0 2.16-1.88 3.2-4.02 3.2-2 0-3.48-.84-4.2-2.38l2.24-1.26c.28.82.96 1.3 1.96 1.3.82 0 1.38-.28 1.38-.86 0-1.46-5.16-.66-5.16-4.18 0-2.04 1.74-3.18 3.8-3.18 1.62 0 3.02.74 3.8 2.12l-2.2 1.2c-.3-.64-.86-1.02-1.6-1.02-.64 0-1.16.28-1.16.82Zm8.662 3.22c.36 1.32 1.46 1.88 2.82 1.88 1 0 1.8-.42 2.24-1l2.08 1.2c-.94 1.36-2.44 2.14-4.36 2.14-3.36 0-5.48-2.3-5.48-5.28 0-2.98 2.14-5.28 5.28-5.28 2.96 0 5.06 2.34 5.06 5.28 0 .38-.04.72-.1 1.06h-7.54Zm-.04-2h5.1c-.32-1.44-1.4-2.02-2.48-2.02-1.38 0-2.32.74-2.62 2.02Z" fill="#FDAF1B"/></svg>