<svg width="1372" height="1345" viewBox="0 0 1372 1345" fill="none" xmlns="http://www.w3.org/2000/svg">
<rect x="1070.92" y="916.923" width="300.153" height="299.153" rx="149.577" stroke="#665E91" stroke-width="1.84691"/>
<path d="M1161.76 1073.5L1157.06 1059.5H1160.06L1163.48 1070.26L1166.88 1059.5H1169.9L1165.18 1073.5H1161.76ZM1171.82 1062.3C1170.96 1062.3 1170.24 1061.58 1170.24 1060.72C1170.24 1059.86 1170.96 1059.12 1171.82 1059.12C1172.7 1059.12 1173.42 1059.86 1173.42 1060.72C1173.42 1061.58 1172.7 1062.3 1171.82 1062.3ZM1170.54 1073.5V1063.5H1173.12V1073.5H1170.54ZM1177.86 1065.22C1178.38 1063.86 1179.64 1063.3 1180.9 1063.3V1066.18C1179.56 1066.02 1177.86 1066.62 1177.86 1068.72V1073.5H1175.28V1063.5H1177.86V1065.22ZM1188.2 1065.98H1185.94V1070.14C1185.94 1071.22 1186.72 1071.24 1188.2 1071.16V1073.5C1184.58 1073.9 1183.36 1072.84 1183.36 1070.14V1065.98H1181.62V1063.5H1183.36V1061.48L1185.94 1060.7V1063.5H1188.2V1065.98ZM1196.58 1063.5H1199.16V1073.5H1196.58V1072.38C1195.98 1073.28 1194.94 1073.78 1193.6 1073.78C1191.48 1073.78 1189.82 1072.3 1189.82 1069.64V1063.5H1192.4V1069.32C1192.4 1070.68 1193.22 1071.38 1194.38 1071.38C1195.64 1071.38 1196.58 1070.64 1196.58 1068.9V1063.5ZM1208.92 1063.5H1211.5V1073.5H1208.92V1072.32C1208.2 1073.22 1207.12 1073.78 1205.66 1073.78C1203 1073.78 1200.8 1071.48 1200.8 1068.5C1200.8 1065.52 1203 1063.22 1205.66 1063.22C1207.12 1063.22 1208.2 1063.78 1208.92 1064.68V1063.5ZM1206.14 1071.32C1207.74 1071.32 1208.92 1070.18 1208.92 1068.5C1208.92 1066.82 1207.74 1065.68 1206.14 1065.68C1204.56 1065.68 1203.38 1066.82 1203.38 1068.5C1203.38 1070.18 1204.56 1071.32 1206.14 1071.32ZM1213.64 1073.5V1058.9H1216.22V1073.5H1213.64ZM1230.98 1073.5L1228.16 1068.64H1226.06V1073.5H1223.3V1059.5H1228.9C1231.48 1059.5 1233.56 1061.58 1233.56 1064.14C1233.56 1065.9 1232.46 1067.48 1230.86 1068.22L1233.96 1073.5H1230.98ZM1226.06 1062.08V1066.22H1228.9C1229.94 1066.22 1230.8 1065.3 1230.8 1064.14C1230.8 1062.98 1229.94 1062.08 1228.9 1062.08H1226.06ZM1236.94 1069.56C1237.3 1070.88 1238.4 1071.44 1239.76 1071.44C1240.76 1071.44 1241.56 1071.02 1242 1070.44L1244.08 1071.64C1243.14 1073 1241.64 1073.78 1239.72 1073.78C1236.36 1073.78 1234.24 1071.48 1234.24 1068.5C1234.24 1065.52 1236.38 1063.22 1239.52 1063.22C1242.48 1063.22 1244.58 1065.56 1244.58 1068.5C1244.58 1068.88 1244.54 1069.22 1244.48 1069.56H1236.94ZM1236.9 1067.56H1242C1241.68 1066.12 1240.6 1065.54 1239.52 1065.54C1238.14 1065.54 1237.2 1066.28 1236.9 1067.56ZM1253.7 1063.5H1256.28V1073.5H1253.7V1072.32C1252.98 1073.22 1251.9 1073.78 1250.44 1073.78C1247.78 1073.78 1245.58 1071.48 1245.58 1068.5C1245.58 1065.52 1247.78 1063.22 1250.44 1063.22C1251.9 1063.22 1252.98 1063.78 1253.7 1064.68V1063.5ZM1250.92 1071.32C1252.52 1071.32 1253.7 1070.18 1253.7 1068.5C1253.7 1066.82 1252.52 1065.68 1250.92 1065.68C1249.34 1065.68 1248.16 1066.82 1248.16 1068.5C1248.16 1070.18 1249.34 1071.32 1250.92 1071.32ZM1258.42 1073.5V1058.9H1261V1073.5H1258.42ZM1264.44 1062.3C1263.58 1062.3 1262.86 1061.58 1262.86 1060.72C1262.86 1059.86 1263.58 1059.12 1264.44 1059.12C1265.32 1059.12 1266.04 1059.86 1266.04 1060.72C1266.04 1061.58 1265.32 1062.3 1264.44 1062.3ZM1263.16 1073.5V1063.5H1265.74V1073.5H1263.16ZM1273.62 1065.98H1271.36V1070.14C1271.36 1071.22 1272.14 1071.24 1273.62 1071.16V1073.5C1270 1073.9 1268.78 1072.84 1268.78 1070.14V1065.98H1267.04V1063.5H1268.78V1061.48L1271.36 1060.7V1063.5H1273.62V1065.98ZM1281.98 1063.5H1284.74L1281.1 1073.5C1280.06 1076.38 1278.36 1077.64 1275.82 1077.5V1075.1C1277.24 1075.12 1277.96 1074.52 1278.44 1073.18L1274.34 1063.5H1277.16L1279.76 1070.22L1281.98 1063.5Z" fill="#FDAF1B"/>
<rect x="162.923" y="707.923" width="361.153" height="360.153" rx="180.077" stroke="#665E91" stroke-width="1.84691"/>
<path d="M312.54 887.48V888.56C312.54 890.56 311.9 892.18 310.62 893.42C309.34 894.66 307.687 895.28 305.66 895.28C303.5 895.28 301.707 894.58 300.28 893.18C298.867 891.767 298.16 890.047 298.16 888.02C298.16 885.98 298.86 884.253 300.26 882.84C301.673 881.427 303.42 880.72 305.5 880.72C306.807 880.72 308 881.02 309.08 881.62C310.16 882.207 311 882.993 311.6 883.98L309.24 885.34C308.907 884.767 308.4 884.3 307.72 883.94C307.053 883.58 306.307 883.4 305.48 883.4C304.147 883.4 303.047 883.84 302.18 884.72C301.327 885.587 300.9 886.687 300.9 888.02C300.9 889.34 301.333 890.433 302.2 891.3C303.08 892.153 304.24 892.58 305.68 892.58C306.747 892.58 307.627 892.347 308.32 891.88C309.027 891.4 309.507 890.747 309.76 889.92H305.52V887.48H312.54ZM321.783 885H324.363V895H321.783V893.82C321.01 894.793 319.923 895.28 318.523 895.28C317.19 895.28 316.043 894.773 315.083 893.76C314.136 892.733 313.663 891.48 313.663 890C313.663 888.52 314.136 887.273 315.083 886.26C316.043 885.233 317.19 884.72 318.523 884.72C319.923 884.72 321.01 885.207 321.783 886.18V885ZM317.023 892.04C317.543 892.56 318.203 892.82 319.003 892.82C319.803 892.82 320.463 892.56 320.983 892.04C321.516 891.507 321.783 890.827 321.783 890C321.783 889.173 321.516 888.5 320.983 887.98C320.463 887.447 319.803 887.18 319.003 887.18C318.203 887.18 317.543 887.447 317.023 887.98C316.503 888.5 316.243 889.173 316.243 890C316.243 890.827 316.503 891.507 317.023 892.04ZM337.563 884.72C338.709 884.72 339.623 885.093 340.303 885.84C340.996 886.587 341.343 887.587 341.343 888.84V895H338.763V889.02C338.763 888.42 338.616 887.953 338.323 887.62C338.029 887.287 337.616 887.12 337.083 887.12C336.496 887.12 336.036 887.313 335.703 887.7C335.383 888.087 335.223 888.647 335.223 889.38V895H332.643V889.02C332.643 888.42 332.496 887.953 332.203 887.62C331.909 887.287 331.496 887.12 330.963 887.12C330.389 887.12 329.929 887.313 329.583 887.7C329.249 888.087 329.083 888.647 329.083 889.38V895H326.503V885H329.083V886.06C329.683 885.167 330.609 884.72 331.863 884.72C333.089 884.72 333.996 885.2 334.583 886.16C335.249 885.2 336.243 884.72 337.563 884.72ZM345.514 891.06C345.861 892.313 346.801 892.94 348.334 892.94C349.321 892.94 350.067 892.607 350.574 891.94L352.654 893.14C351.667 894.567 350.214 895.28 348.294 895.28C346.641 895.28 345.314 894.78 344.314 893.78C343.314 892.78 342.814 891.52 342.814 890C342.814 888.493 343.307 887.24 344.294 886.24C345.281 885.227 346.547 884.72 348.094 884.72C349.561 884.72 350.767 885.227 351.714 886.24C352.674 887.253 353.154 888.507 353.154 890C353.154 890.333 353.121 890.687 353.054 891.06H345.514ZM345.474 889.06H350.574C350.427 888.38 350.121 887.873 349.654 887.54C349.201 887.207 348.681 887.04 348.094 887.04C347.401 887.04 346.827 887.22 346.374 887.58C345.921 887.927 345.621 888.42 345.474 889.06ZM360.435 881C362.355 881 363.955 881.673 365.235 883.02C366.528 884.367 367.175 886.027 367.175 888C367.175 889.973 366.528 891.633 365.235 892.98C363.955 894.327 362.355 895 360.435 895H354.875V881H360.435ZM360.435 892.36C361.648 892.36 362.635 891.96 363.395 891.16C364.155 890.347 364.535 889.293 364.535 888C364.535 886.707 364.155 885.66 363.395 884.86C362.635 884.047 361.648 883.64 360.435 883.64H357.635V892.36H360.435ZM370.993 891.06C371.339 892.313 372.279 892.94 373.813 892.94C374.799 892.94 375.546 892.607 376.053 891.94L378.133 893.14C377.146 894.567 375.693 895.28 373.773 895.28C372.119 895.28 370.793 894.78 369.793 893.78C368.793 892.78 368.293 891.52 368.293 890C368.293 888.493 368.786 887.24 369.773 886.24C370.759 885.227 372.026 884.72 373.573 884.72C375.039 884.72 376.246 885.227 377.193 886.24C378.153 887.253 378.633 888.507 378.633 890C378.633 890.333 378.599 890.687 378.533 891.06H370.993ZM370.953 889.06H376.053C375.906 888.38 375.599 887.873 375.133 887.54C374.679 887.207 374.159 887.04 373.573 887.04C372.879 887.04 372.306 887.22 371.853 887.58C371.399 887.927 371.099 888.42 370.953 889.06ZM386.423 885H389.263L385.463 895H382.523L378.723 885H381.563L383.983 892L386.423 885Z" fill="#FDAF1B"/>
<rect x="635.923" y="459.923" width="305.153" height="309.153" rx="152.577" stroke="#665E91" stroke-width="1.84691"/>
<path d="M753.44 621.78C751.333 621.78 749.593 621.08 748.22 619.68C746.847 618.28 746.16 616.553 746.16 614.5C746.16 612.433 746.847 610.707 748.22 609.32C749.593 607.92 751.333 607.22 753.44 607.22C754.707 607.22 755.873 607.52 756.94 608.12C758.02 608.707 758.86 609.507 759.46 610.52L757.08 611.9C756.733 611.273 756.24 610.787 755.6 610.44C754.96 610.08 754.24 609.9 753.44 609.9C752.08 609.9 750.98 610.327 750.14 611.18C749.313 612.033 748.9 613.14 748.9 614.5C748.9 615.847 749.313 616.947 750.14 617.8C750.98 618.653 752.08 619.08 753.44 619.08C754.24 619.08 754.96 618.907 755.6 618.56C756.253 618.2 756.747 617.713 757.08 617.1L759.46 618.48C758.86 619.493 758.027 620.3 756.96 620.9C755.893 621.487 754.72 621.78 753.44 621.78ZM766.552 611.22C767.645 611.22 768.545 611.587 769.252 612.32C769.972 613.053 770.332 614.067 770.332 615.36V621.5H767.752V615.68C767.752 615.013 767.572 614.507 767.212 614.16C766.852 613.8 766.372 613.62 765.772 613.62C765.105 613.62 764.572 613.827 764.172 614.24C763.772 614.653 763.572 615.273 763.572 616.1V621.5H760.992V607.5H763.572V612.62C764.198 611.687 765.192 611.22 766.552 611.22ZM779.935 611.5H782.515V621.5H779.935V620.32C779.161 621.293 778.075 621.78 776.675 621.78C775.341 621.78 774.195 621.273 773.235 620.26C772.288 619.233 771.815 617.98 771.815 616.5C771.815 615.02 772.288 613.773 773.235 612.76C774.195 611.733 775.341 611.22 776.675 611.22C778.075 611.22 779.161 611.707 779.935 612.68V611.5ZM775.175 618.54C775.695 619.06 776.355 619.32 777.155 619.32C777.955 619.32 778.615 619.06 779.135 618.54C779.668 618.007 779.935 617.327 779.935 616.5C779.935 615.673 779.668 615 779.135 614.48C778.615 613.947 777.955 613.68 777.155 613.68C776.355 613.68 775.695 613.947 775.175 614.48C774.655 615 774.395 615.673 774.395 616.5C774.395 617.327 774.655 618.007 775.175 618.54ZM790.374 613.98H788.114V618.14C788.114 618.487 788.201 618.74 788.374 618.9C788.548 619.06 788.801 619.153 789.134 619.18C789.468 619.193 789.881 619.187 790.374 619.16V621.5C788.601 621.7 787.348 621.533 786.614 621C785.894 620.467 785.534 619.513 785.534 618.14V613.98H783.794V611.5H785.534V609.48L788.114 608.7V611.5H790.374V613.98ZM797.813 611.22C799.16 611.22 800.307 611.733 801.253 612.76C802.213 613.773 802.693 615.02 802.693 616.5C802.693 617.98 802.213 619.233 801.253 620.26C800.307 621.273 799.16 621.78 797.813 621.78C796.413 621.78 795.333 621.293 794.573 620.32V621.5H791.993V607.5H794.573V612.68C795.333 611.707 796.413 611.22 797.813 611.22ZM795.353 618.54C795.873 619.06 796.533 619.32 797.333 619.32C798.133 619.32 798.793 619.06 799.313 618.54C799.847 618.007 800.113 617.327 800.113 616.5C800.113 615.673 799.847 615 799.313 614.48C798.793 613.947 798.133 613.68 797.333 613.68C796.533 613.68 795.873 613.947 795.353 614.48C794.833 615 794.573 615.673 794.573 616.5C794.573 617.327 794.833 618.007 795.353 618.54ZM812.833 620.26C811.806 621.273 810.553 621.78 809.073 621.78C807.593 621.78 806.339 621.273 805.313 620.26C804.299 619.233 803.793 617.98 803.793 616.5C803.793 615.02 804.299 613.773 805.313 612.76C806.339 611.733 807.593 611.22 809.073 611.22C810.553 611.22 811.806 611.733 812.833 612.76C813.859 613.773 814.373 615.02 814.373 616.5C814.373 617.98 813.859 619.233 812.833 620.26ZM807.133 618.48C807.653 619 808.299 619.26 809.073 619.26C809.846 619.26 810.493 619 811.013 618.48C811.533 617.96 811.793 617.3 811.793 616.5C811.793 615.7 811.533 615.04 811.013 614.52C810.493 614 809.846 613.74 809.073 613.74C808.299 613.74 807.653 614 807.133 614.52C806.626 615.04 806.373 615.7 806.373 616.5C806.373 617.3 806.626 617.96 807.133 618.48ZM821.493 613.98H819.233V618.14C819.233 618.487 819.32 618.74 819.493 618.9C819.666 619.06 819.92 619.153 820.253 619.18C820.586 619.193 821 619.187 821.493 619.16V621.5C819.72 621.7 818.466 621.533 817.733 621C817.013 620.467 816.653 619.513 816.653 618.14V613.98H814.913V611.5H816.653V609.48L819.233 608.7V611.5H821.493V613.98ZM825.277 614.34C825.277 614.607 825.451 614.827 825.797 615C826.157 615.16 826.591 615.307 827.097 615.44C827.604 615.56 828.111 615.72 828.617 615.92C829.124 616.107 829.551 616.427 829.897 616.88C830.257 617.333 830.437 617.9 830.437 618.58C830.437 619.607 830.051 620.4 829.277 620.96C828.517 621.507 827.564 621.78 826.417 621.78C824.364 621.78 822.964 620.987 822.217 619.4L824.457 618.14C824.751 619.007 825.404 619.44 826.417 619.44C827.337 619.44 827.797 619.153 827.797 618.58C827.797 618.313 827.617 618.1 827.257 617.94C826.911 617.767 826.484 617.613 825.977 617.48C825.471 617.347 824.964 617.18 824.457 616.98C823.951 616.78 823.517 616.467 823.157 616.04C822.811 615.6 822.637 615.053 822.637 614.4C822.637 613.413 822.997 612.64 823.717 612.08C824.451 611.507 825.357 611.22 826.437 611.22C827.251 611.22 827.991 611.407 828.657 611.78C829.324 612.14 829.851 612.66 830.237 613.34L828.037 614.54C827.717 613.86 827.184 613.52 826.437 613.52C826.104 613.52 825.824 613.593 825.597 613.74C825.384 613.887 825.277 614.087 825.277 614.34Z" fill="#FDAF1B"/>
<rect x="701.923" y="52.9235" width="431.153" height="430.153" rx="215.077" stroke="#665E91" stroke-width="1.84691"/>
<path d="M834.3 275L833.46 272.48H827.88L827.04 275H824.06L828.96 261H832.38L837.3 275H834.3ZM828.76 269.9H832.6L830.68 264.18L828.76 269.9ZM840.919 266.72C841.159 266.08 841.553 265.6 842.099 265.28C842.659 264.96 843.279 264.8 843.959 264.8V267.68C843.173 267.587 842.466 267.747 841.839 268.16C841.226 268.573 840.919 269.26 840.919 270.22V275H838.339V265H840.919V266.72ZM851.262 267.48H849.002V271.64C849.002 271.987 849.088 272.24 849.262 272.4C849.435 272.56 849.688 272.653 850.022 272.68C850.355 272.693 850.768 272.687 851.262 272.66V275C849.488 275.2 848.235 275.033 847.502 274.5C846.782 273.967 846.422 273.013 846.422 271.64V267.48H844.682V265H846.422V262.98L849.002 262.2V265H851.262V267.48ZM854.161 263.8C853.734 263.8 853.361 263.647 853.041 263.34C852.734 263.02 852.581 262.647 852.581 262.22C852.581 261.793 852.734 261.42 853.041 261.1C853.361 260.78 853.734 260.62 854.161 260.62C854.601 260.62 854.974 260.78 855.281 261.1C855.601 261.42 855.761 261.793 855.761 262.22C855.761 262.647 855.601 263.02 855.281 263.34C854.974 263.647 854.601 263.8 854.161 263.8ZM852.881 275V265H855.461V275H852.881ZM866.402 265V275H863.822V267.48H860.882V275H858.302V267.48H856.862V265H858.302V264.9C858.302 262.113 859.869 260.72 863.002 260.72C863.709 260.72 864.489 260.813 865.342 261V263.36C864.449 263.253 863.669 263.2 863.002 263.2C862.282 263.2 861.749 263.327 861.402 263.58C861.056 263.82 860.882 264.26 860.882 264.9V265H866.402ZM873.315 275.28C871.808 275.28 870.548 274.773 869.535 273.76C868.535 272.747 868.035 271.493 868.035 270C868.035 268.507 868.535 267.253 869.535 266.24C870.548 265.227 871.808 264.72 873.315 264.72C874.288 264.72 875.175 264.953 875.975 265.42C876.775 265.887 877.382 266.513 877.795 267.3L875.575 268.6C875.375 268.187 875.068 267.86 874.655 267.62C874.255 267.38 873.802 267.26 873.295 267.26C872.522 267.26 871.882 267.52 871.375 268.04C870.868 268.547 870.615 269.2 870.615 270C870.615 270.787 870.868 271.44 871.375 271.96C871.882 272.467 872.522 272.72 873.295 272.72C873.815 272.72 874.275 272.607 874.675 272.38C875.088 272.14 875.395 271.813 875.595 271.4L877.835 272.68C877.395 273.467 876.775 274.1 875.975 274.58C875.175 275.047 874.288 275.28 873.315 275.28ZM880.28 263.8C879.853 263.8 879.48 263.647 879.16 263.34C878.853 263.02 878.7 262.647 878.7 262.22C878.7 261.793 878.853 261.42 879.16 261.1C879.48 260.78 879.853 260.62 880.28 260.62C880.72 260.62 881.093 260.78 881.4 261.1C881.72 261.42 881.88 261.793 881.88 262.22C881.88 262.647 881.72 263.02 881.4 263.34C881.093 263.647 880.72 263.8 880.28 263.8ZM879 275V265H881.58V275H879ZM891.341 265H893.921V275H891.341V273.82C890.568 274.793 889.481 275.28 888.081 275.28C886.748 275.28 885.601 274.773 884.641 273.76C883.694 272.733 883.221 271.48 883.221 270C883.221 268.52 883.694 267.273 884.641 266.26C885.601 265.233 886.748 264.72 888.081 264.72C889.481 264.72 890.568 265.207 891.341 266.18V265ZM886.581 272.04C887.101 272.56 887.761 272.82 888.561 272.82C889.361 272.82 890.021 272.56 890.541 272.04C891.074 271.507 891.341 270.827 891.341 270C891.341 269.173 891.074 268.5 890.541 267.98C890.021 267.447 889.361 267.18 888.561 267.18C887.761 267.18 887.101 267.447 886.581 267.98C886.061 268.5 885.801 269.173 885.801 270C885.801 270.827 886.061 271.507 886.581 272.04ZM896.06 275V260.4H898.64V275H896.06ZM905.722 261H908.482V275H905.722V261ZM916.313 264.72C917.407 264.72 918.307 265.087 919.013 265.82C919.733 266.553 920.093 267.567 920.093 268.86V275H917.513V269.18C917.513 268.513 917.333 268.007 916.973 267.66C916.613 267.3 916.133 267.12 915.533 267.12C914.867 267.12 914.333 267.327 913.933 267.74C913.533 268.153 913.333 268.773 913.333 269.6V275H910.753V265H913.333V266.12C913.96 265.187 914.953 264.72 916.313 264.72ZM927.816 267.48H925.556V271.64C925.556 271.987 925.643 272.24 925.816 272.4C925.99 272.56 926.243 272.653 926.576 272.68C926.91 272.693 927.323 272.687 927.816 272.66V275C926.043 275.2 924.79 275.033 924.056 274.5C923.336 273.967 922.976 273.013 922.976 271.64V267.48H921.236V265H922.976V262.98L925.556 262.2V265H927.816V267.48ZM931.303 271.06C931.65 272.313 932.59 272.94 934.123 272.94C935.11 272.94 935.856 272.607 936.363 271.94L938.443 273.14C937.456 274.567 936.003 275.28 934.083 275.28C932.43 275.28 931.103 274.78 930.103 273.78C929.103 272.78 928.603 271.52 928.603 270C928.603 268.493 929.096 267.24 930.083 266.24C931.07 265.227 932.336 264.72 933.883 264.72C935.35 264.72 936.556 265.227 937.503 266.24C938.463 267.253 938.943 268.507 938.943 270C938.943 270.333 938.91 270.687 938.843 271.06H931.303ZM931.263 269.06H936.363C936.216 268.38 935.91 267.873 935.443 267.54C934.99 267.207 934.47 267.04 933.883 267.04C933.19 267.04 932.616 267.22 932.163 267.58C931.71 267.927 931.41 268.42 931.263 269.06ZM940.544 275V260.4H943.124V275H940.544ZM945.285 275V260.4H947.865V275H945.285ZM951.307 263.8C950.88 263.8 950.507 263.647 950.187 263.34C949.88 263.02 949.727 262.647 949.727 262.22C949.727 261.793 949.88 261.42 950.187 261.1C950.507 260.78 950.88 260.62 951.307 260.62C951.747 260.62 952.12 260.78 952.427 261.1C952.747 261.42 952.907 261.793 952.907 262.22C952.907 262.647 952.747 263.02 952.427 263.34C952.12 263.647 951.747 263.8 951.307 263.8ZM950.027 275V265H952.607V275H950.027ZM962.428 265H964.948V274.52C964.948 276.067 964.435 277.247 963.408 278.06C962.395 278.873 961.168 279.28 959.728 279.28C958.648 279.28 957.695 279.073 956.868 278.66C956.055 278.247 955.428 277.64 954.988 276.84L957.188 275.58C957.695 276.513 958.568 276.98 959.808 276.98C960.622 276.98 961.262 276.767 961.728 276.34C962.195 275.913 962.428 275.307 962.428 274.52V273.44C961.668 274.453 960.602 274.96 959.228 274.96C957.815 274.96 956.628 274.467 955.668 273.48C954.722 272.48 954.248 271.267 954.248 269.84C954.248 268.427 954.728 267.22 955.688 266.22C956.648 265.22 957.828 264.72 959.228 264.72C960.602 264.72 961.668 265.227 962.428 266.24V265ZM957.608 271.82C958.142 272.327 958.815 272.58 959.628 272.58C960.442 272.58 961.108 272.327 961.628 271.82C962.162 271.3 962.428 270.64 962.428 269.84C962.428 269.053 962.162 268.407 961.628 267.9C961.108 267.38 960.442 267.12 959.628 267.12C958.815 267.12 958.142 267.38 957.608 267.9C957.088 268.407 956.828 269.053 956.828 269.84C956.828 270.64 957.088 271.3 957.608 271.82ZM969.268 271.06C969.614 272.313 970.554 272.94 972.088 272.94C973.074 272.94 973.821 272.607 974.328 271.94L976.408 273.14C975.421 274.567 973.968 275.28 972.048 275.28C970.394 275.28 969.068 274.78 968.068 273.78C967.068 272.78 966.568 271.52 966.568 270C966.568 268.493 967.061 267.24 968.048 266.24C969.034 265.227 970.301 264.72 971.848 264.72C973.314 264.72 974.521 265.227 975.468 266.24C976.428 267.253 976.908 268.507 976.908 270C976.908 270.333 976.874 270.687 976.808 271.06H969.268ZM969.228 269.06H974.328C974.181 268.38 973.874 267.873 973.408 267.54C972.954 267.207 972.434 267.04 971.848 267.04C971.154 267.04 970.581 267.22 970.128 267.58C969.674 267.927 969.374 268.42 969.228 269.06ZM984.069 264.72C985.162 264.72 986.062 265.087 986.769 265.82C987.489 266.553 987.849 267.567 987.849 268.86V275H985.269V269.18C985.269 268.513 985.089 268.007 984.729 267.66C984.369 267.3 983.889 267.12 983.289 267.12C982.622 267.12 982.089 267.327 981.689 267.74C981.289 268.153 981.089 268.773 981.089 269.6V275H978.509V265H981.089V266.12C981.716 265.187 982.709 264.72 984.069 264.72ZM994.612 275.28C993.105 275.28 991.845 274.773 990.832 273.76C989.832 272.747 989.332 271.493 989.332 270C989.332 268.507 989.832 267.253 990.832 266.24C991.845 265.227 993.105 264.72 994.612 264.72C995.585 264.72 996.472 264.953 997.272 265.42C998.072 265.887 998.679 266.513 999.092 267.3L996.872 268.6C996.672 268.187 996.365 267.86 995.952 267.62C995.552 267.38 995.099 267.26 994.592 267.26C993.819 267.26 993.179 267.52 992.672 268.04C992.165 268.547 991.912 269.2 991.912 270C991.912 270.787 992.165 271.44 992.672 271.96C993.179 272.467 993.819 272.72 994.592 272.72C995.112 272.72 995.572 272.607 995.972 272.38C996.385 272.14 996.692 271.813 996.892 271.4L999.132 272.68C998.692 273.467 998.072 274.1 997.272 274.58C996.472 275.047 995.585 275.28 994.612 275.28ZM1002.32 271.06C1002.67 272.313 1003.61 272.94 1005.14 272.94C1006.13 272.94 1006.87 272.607 1007.38 271.94L1009.46 273.14C1008.47 274.567 1007.02 275.28 1005.1 275.28C1003.45 275.28 1002.12 274.78 1001.12 273.78C1000.12 272.78 999.62 271.52 999.62 270C999.62 268.493 1000.11 267.24 1001.1 266.24C1002.09 265.227 1003.35 264.72 1004.9 264.72C1006.37 264.72 1007.57 265.227 1008.52 266.24C1009.48 267.253 1009.96 268.507 1009.96 270C1009.96 270.333 1009.93 270.687 1009.86 271.06H1002.32ZM1002.28 269.06H1007.38C1007.23 268.38 1006.93 267.873 1006.46 267.54C1006.01 267.207 1005.49 267.04 1004.9 267.04C1004.21 267.04 1003.63 267.22 1003.18 267.58C1002.73 267.927 1002.43 268.42 1002.28 269.06Z" fill="#FDAF1B"/>
<rect x="0.923456" y="0.923456" width="705.153" height="705.153" rx="352.577" stroke="#665E91" stroke-width="1.84691"/>
<path d="M263.3 346.5H266.06V360.5H263.3V346.5ZM273.892 350.22C274.985 350.22 275.885 350.587 276.592 351.32C277.312 352.053 277.672 353.067 277.672 354.36V360.5H275.092V354.68C275.092 354.013 274.912 353.507 274.552 353.16C274.192 352.8 273.712 352.62 273.112 352.62C272.445 352.62 271.912 352.827 271.512 353.24C271.112 353.653 270.912 354.273 270.912 355.1V360.5H268.332V350.5H270.912V351.62C271.538 350.687 272.532 350.22 273.892 350.22ZM285.395 352.98H283.135V357.14C283.135 357.487 283.221 357.74 283.395 357.9C283.568 358.06 283.821 358.153 284.155 358.18C284.488 358.193 284.901 358.187 285.395 358.16V360.5C283.621 360.7 282.368 360.533 281.635 360C280.915 359.467 280.555 358.513 280.555 357.14V352.98H278.815V350.5H280.555V348.48L283.135 347.7V350.5H285.395V352.98ZM288.881 356.56C289.228 357.813 290.168 358.44 291.701 358.44C292.688 358.44 293.434 358.107 293.941 357.44L296.021 358.64C295.034 360.067 293.581 360.78 291.661 360.78C290.008 360.78 288.681 360.28 287.681 359.28C286.681 358.28 286.181 357.02 286.181 355.5C286.181 353.993 286.674 352.74 287.661 351.74C288.648 350.727 289.914 350.22 291.461 350.22C292.928 350.22 294.134 350.727 295.081 351.74C296.041 352.753 296.521 354.007 296.521 355.5C296.521 355.833 296.488 356.187 296.421 356.56H288.881ZM288.841 354.56H293.941C293.794 353.88 293.488 353.373 293.021 353.04C292.568 352.707 292.048 352.54 291.461 352.54C290.768 352.54 290.194 352.72 289.741 353.08C289.288 353.427 288.988 353.92 288.841 354.56ZM300.702 352.22C300.942 351.58 301.336 351.1 301.882 350.78C302.442 350.46 303.062 350.3 303.742 350.3V353.18C302.956 353.087 302.249 353.247 301.622 353.66C301.009 354.073 300.702 354.76 300.702 355.72V360.5H298.122V350.5H300.702V352.22ZM312.28 350.5H314.86V360.5H312.28V359.32C311.507 360.293 310.42 360.78 309.02 360.78C307.687 360.78 306.54 360.273 305.58 359.26C304.633 358.233 304.16 356.98 304.16 355.5C304.16 354.02 304.633 352.773 305.58 351.76C306.54 350.733 307.687 350.22 309.02 350.22C310.42 350.22 311.507 350.707 312.28 351.68V350.5ZM307.52 357.54C308.04 358.06 308.7 358.32 309.5 358.32C310.3 358.32 310.96 358.06 311.48 357.54C312.013 357.007 312.28 356.327 312.28 355.5C312.28 354.673 312.013 354 311.48 353.48C310.96 352.947 310.3 352.68 309.5 352.68C308.7 352.68 308.04 352.947 307.52 353.48C307 354 306.74 354.673 306.74 355.5C306.74 356.327 307 357.007 307.52 357.54ZM321.76 360.78C320.253 360.78 318.993 360.273 317.98 359.26C316.98 358.247 316.48 356.993 316.48 355.5C316.48 354.007 316.98 352.753 317.98 351.74C318.993 350.727 320.253 350.22 321.76 350.22C322.733 350.22 323.62 350.453 324.42 350.92C325.22 351.387 325.826 352.013 326.24 352.8L324.02 354.1C323.82 353.687 323.513 353.36 323.1 353.12C322.7 352.88 322.246 352.76 321.74 352.76C320.966 352.76 320.326 353.02 319.82 353.54C319.313 354.047 319.06 354.7 319.06 355.5C319.06 356.287 319.313 356.94 319.82 357.46C320.326 357.967 320.966 358.22 321.74 358.22C322.26 358.22 322.72 358.107 323.12 357.88C323.533 357.64 323.84 357.313 324.04 356.9L326.28 358.18C325.84 358.967 325.22 359.6 324.42 360.08C323.62 360.547 322.733 360.78 321.76 360.78ZM333.164 352.98H330.904V357.14C330.904 357.487 330.991 357.74 331.164 357.9C331.337 358.06 331.591 358.153 331.924 358.18C332.257 358.193 332.671 358.187 333.164 358.16V360.5C331.391 360.7 330.137 360.533 329.404 360C328.684 359.467 328.324 358.513 328.324 357.14V352.98H326.584V350.5H328.324V348.48L330.904 347.7V350.5H333.164V352.98ZM336.063 349.3C335.636 349.3 335.263 349.147 334.943 348.84C334.636 348.52 334.483 348.147 334.483 347.72C334.483 347.293 334.636 346.92 334.943 346.6C335.263 346.28 335.636 346.12 336.063 346.12C336.503 346.12 336.876 346.28 337.183 346.6C337.503 346.92 337.663 347.293 337.663 347.72C337.663 348.147 337.503 348.52 337.183 348.84C336.876 349.147 336.503 349.3 336.063 349.3ZM334.783 360.5V350.5H337.363V360.5H334.783ZM346.105 350.5H348.945L345.145 360.5H342.205L338.405 350.5H341.245L343.665 357.5L346.105 350.5ZM351.778 356.56C352.125 357.813 353.065 358.44 354.598 358.44C355.585 358.44 356.331 358.107 356.838 357.44L358.918 358.64C357.931 360.067 356.478 360.78 354.558 360.78C352.905 360.78 351.578 360.28 350.578 359.28C349.578 358.28 349.078 357.02 349.078 355.5C349.078 353.993 349.571 352.74 350.558 351.74C351.545 350.727 352.811 350.22 354.358 350.22C355.825 350.22 357.031 350.727 357.978 351.74C358.938 352.753 359.418 354.007 359.418 355.5C359.418 355.833 359.385 356.187 359.318 356.56H351.778ZM351.738 354.56H356.838C356.691 353.88 356.385 353.373 355.918 353.04C355.465 352.707 354.945 352.54 354.358 352.54C353.665 352.54 353.091 352.72 352.638 353.08C352.185 353.427 351.885 353.92 351.738 354.56ZM377.079 350.5H379.819L376.639 360.5H374.179L372.339 354.44L370.499 360.5H368.039L364.859 350.5H367.599L369.299 356.64L371.119 350.5H373.559L375.379 356.66L377.079 350.5ZM382.799 356.56C383.146 357.813 384.086 358.44 385.619 358.44C386.606 358.44 387.352 358.107 387.859 357.44L389.939 358.64C388.952 360.067 387.499 360.78 385.579 360.78C383.926 360.78 382.599 360.28 381.599 359.28C380.599 358.28 380.099 357.02 380.099 355.5C380.099 353.993 380.592 352.74 381.579 351.74C382.566 350.727 383.832 350.22 385.379 350.22C386.846 350.22 388.052 350.727 388.999 351.74C389.959 352.753 390.439 354.007 390.439 355.5C390.439 355.833 390.406 356.187 390.339 356.56H382.799ZM382.759 354.56H387.859C387.712 353.88 387.406 353.373 386.939 353.04C386.486 352.707 385.966 352.54 385.379 352.54C384.686 352.54 384.112 352.72 383.659 353.08C383.206 353.427 382.906 353.92 382.759 354.56ZM397.86 350.22C399.207 350.22 400.353 350.733 401.3 351.76C402.26 352.773 402.74 354.02 402.74 355.5C402.74 356.98 402.26 358.233 401.3 359.26C400.353 360.273 399.207 360.78 397.86 360.78C396.46 360.78 395.38 360.293 394.62 359.32V360.5H392.04V346.5H394.62V351.68C395.38 350.707 396.46 350.22 397.86 350.22ZM395.4 357.54C395.92 358.06 396.58 358.32 397.38 358.32C398.18 358.32 398.84 358.06 399.36 357.54C399.893 357.007 400.16 356.327 400.16 355.5C400.16 354.673 399.893 354 399.36 353.48C398.84 352.947 398.18 352.68 397.38 352.68C396.58 352.68 395.92 352.947 395.4 353.48C394.88 354 394.62 354.673 394.62 355.5C394.62 356.327 394.88 357.007 395.4 357.54ZM406.525 353.34C406.525 353.607 406.698 353.827 407.045 354C407.405 354.16 407.838 354.307 408.345 354.44C408.852 354.56 409.358 354.72 409.865 354.92C410.372 355.107 410.798 355.427 411.145 355.88C411.505 356.333 411.685 356.9 411.685 357.58C411.685 358.607 411.298 359.4 410.525 359.96C409.765 360.507 408.812 360.78 407.665 360.78C405.612 360.78 404.212 359.987 403.465 358.4L405.705 357.14C405.998 358.007 406.652 358.44 407.665 358.44C408.585 358.44 409.045 358.153 409.045 357.58C409.045 357.313 408.865 357.1 408.505 356.94C408.158 356.767 407.732 356.613 407.225 356.48C406.718 356.347 406.212 356.18 405.705 355.98C405.198 355.78 404.765 355.467 404.405 355.04C404.058 354.6 403.885 354.053 403.885 353.4C403.885 352.413 404.245 351.64 404.965 351.08C405.698 350.507 406.605 350.22 407.685 350.22C408.498 350.22 409.238 350.407 409.905 350.78C410.572 351.14 411.098 351.66 411.485 352.34L409.285 353.54C408.965 352.86 408.432 352.52 407.685 352.52C407.352 352.52 407.072 352.593 406.845 352.74C406.632 352.887 406.525 353.087 406.525 353.34ZM414.424 349.3C413.997 349.3 413.624 349.147 413.304 348.84C412.997 348.52 412.844 348.147 412.844 347.72C412.844 347.293 412.997 346.92 413.304 346.6C413.624 346.28 413.997 346.12 414.424 346.12C414.864 346.12 415.237 346.28 415.544 346.6C415.864 346.92 416.024 347.293 416.024 347.72C416.024 348.147 415.864 348.52 415.544 348.84C415.237 349.147 414.864 349.3 414.424 349.3ZM413.144 360.5V350.5H415.724V360.5H413.144ZM423.605 352.98H421.345V357.14C421.345 357.487 421.432 357.74 421.605 357.9C421.779 358.06 422.032 358.153 422.365 358.18C422.699 358.193 423.112 358.187 423.605 358.16V360.5C421.832 360.7 420.579 360.533 419.845 360C419.125 359.467 418.765 358.513 418.765 357.14V352.98H417.025V350.5H418.765V348.48L421.345 347.7V350.5H423.605V352.98ZM427.092 356.56C427.439 357.813 428.379 358.44 429.912 358.44C430.899 358.44 431.645 358.107 432.152 357.44L434.232 358.64C433.245 360.067 431.792 360.78 429.872 360.78C428.219 360.78 426.892 360.28 425.892 359.28C424.892 358.28 424.392 357.02 424.392 355.5C424.392 353.993 424.885 352.74 425.872 351.74C426.859 350.727 428.125 350.22 429.672 350.22C431.139 350.22 432.345 350.727 433.292 351.74C434.252 352.753 434.732 354.007 434.732 355.5C434.732 355.833 434.699 356.187 434.632 356.56H427.092ZM427.052 354.56H432.152C432.005 353.88 431.699 353.373 431.232 353.04C430.779 352.707 430.259 352.54 429.672 352.54C428.979 352.54 428.405 352.72 427.952 353.08C427.499 353.427 427.199 353.92 427.052 354.56ZM438.322 353.34C438.322 353.607 438.496 353.827 438.842 354C439.202 354.16 439.636 354.307 440.142 354.44C440.649 354.56 441.156 354.72 441.662 354.92C442.169 355.107 442.596 355.427 442.942 355.88C443.302 356.333 443.482 356.9 443.482 357.58C443.482 358.607 443.096 359.4 442.322 359.96C441.562 360.507 440.609 360.78 439.462 360.78C437.409 360.78 436.009 359.987 435.262 358.4L437.502 357.14C437.796 358.007 438.449 358.44 439.462 358.44C440.382 358.44 440.842 358.153 440.842 357.58C440.842 357.313 440.662 357.1 440.302 356.94C439.956 356.767 439.529 356.613 439.022 356.48C438.516 356.347 438.009 356.18 437.502 355.98C436.996 355.78 436.562 355.467 436.202 355.04C435.856 354.6 435.682 354.053 435.682 353.4C435.682 352.413 436.042 351.64 436.762 351.08C437.496 350.507 438.402 350.22 439.482 350.22C440.296 350.22 441.036 350.407 441.702 350.78C442.369 351.14 442.896 351.66 443.282 352.34L441.082 353.54C440.762 352.86 440.229 352.52 439.482 352.52C439.149 352.52 438.869 352.593 438.642 352.74C438.429 352.887 438.322 353.087 438.322 353.34Z" fill="#FDAF1B"/>
<rect x="1098.92" y="323.923" width="171.153" height="171.153" rx="85.5765" stroke="#665E91" stroke-width="1.84691"/>
<path d="M1116.26 409.24C1117.49 409.947 1118.1 411.013 1118.1 412.44C1118.1 413.627 1117.68 414.6 1116.84 415.36C1116 416.12 1114.97 416.5 1113.74 416.5H1107.8V402.5H1113.32C1114.52 402.5 1115.53 402.873 1116.34 403.62C1117.17 404.353 1117.58 405.293 1117.58 406.44C1117.58 407.6 1117.14 408.533 1116.26 409.24ZM1113.32 405.08H1110.56V408.16H1113.32C1113.75 408.16 1114.1 408.013 1114.38 407.72C1114.67 407.427 1114.82 407.06 1114.82 406.62C1114.82 406.18 1114.68 405.813 1114.4 405.52C1114.12 405.227 1113.76 405.08 1113.32 405.08ZM1113.74 413.92C1114.21 413.92 1114.59 413.767 1114.9 413.46C1115.21 413.14 1115.36 412.74 1115.36 412.26C1115.36 411.793 1115.21 411.407 1114.9 411.1C1114.59 410.78 1114.21 410.62 1113.74 410.62H1110.56V413.92H1113.74ZM1119.59 416.5V401.9H1122.17V416.5H1119.59ZM1132.85 415.26C1131.82 416.273 1130.57 416.78 1129.09 416.78C1127.61 416.78 1126.36 416.273 1125.33 415.26C1124.32 414.233 1123.81 412.98 1123.81 411.5C1123.81 410.02 1124.32 408.773 1125.33 407.76C1126.36 406.733 1127.61 406.22 1129.09 406.22C1130.57 406.22 1131.82 406.733 1132.85 407.76C1133.88 408.773 1134.39 410.02 1134.39 411.5C1134.39 412.98 1133.88 414.233 1132.85 415.26ZM1127.15 413.48C1127.67 414 1128.32 414.26 1129.09 414.26C1129.86 414.26 1130.51 414 1131.03 413.48C1131.55 412.96 1131.81 412.3 1131.81 411.5C1131.81 410.7 1131.55 410.04 1131.03 409.52C1130.51 409 1129.86 408.74 1129.09 408.74C1128.32 408.74 1127.67 409 1127.15 409.52C1126.64 410.04 1126.39 410.7 1126.39 411.5C1126.39 412.3 1126.64 412.96 1127.15 413.48ZM1140.77 416.78C1139.26 416.78 1138 416.273 1136.99 415.26C1135.99 414.247 1135.49 412.993 1135.49 411.5C1135.49 410.007 1135.99 408.753 1136.99 407.74C1138 406.727 1139.26 406.22 1140.77 406.22C1141.74 406.22 1142.63 406.453 1143.43 406.92C1144.23 407.387 1144.83 408.013 1145.25 408.8L1143.03 410.1C1142.83 409.687 1142.52 409.36 1142.11 409.12C1141.71 408.88 1141.25 408.76 1140.75 408.76C1139.97 408.76 1139.33 409.02 1138.83 409.54C1138.32 410.047 1138.07 410.7 1138.07 411.5C1138.07 412.287 1138.32 412.94 1138.83 413.46C1139.33 413.967 1139.97 414.22 1140.75 414.22C1141.27 414.22 1141.73 414.107 1142.13 413.88C1142.54 413.64 1142.85 413.313 1143.05 412.9L1145.29 414.18C1144.85 414.967 1144.23 415.6 1143.43 416.08C1142.63 416.547 1141.74 416.78 1140.77 416.78ZM1155.67 416.5H1152.67L1149.03 411.96V416.5H1146.45V402.5H1149.03V410.9L1152.47 406.5H1155.55L1151.53 411.44L1155.67 416.5ZM1160.8 416.78C1159.29 416.78 1158.03 416.273 1157.02 415.26C1156.02 414.247 1155.52 412.993 1155.52 411.5C1155.52 410.007 1156.02 408.753 1157.02 407.74C1158.03 406.727 1159.29 406.22 1160.8 406.22C1161.77 406.22 1162.66 406.453 1163.46 406.92C1164.26 407.387 1164.86 408.013 1165.28 408.8L1163.06 410.1C1162.86 409.687 1162.55 409.36 1162.14 409.12C1161.74 408.88 1161.28 408.76 1160.78 408.76C1160 408.76 1159.36 409.02 1158.86 409.54C1158.35 410.047 1158.1 410.7 1158.1 411.5C1158.1 412.287 1158.35 412.94 1158.86 413.46C1159.36 413.967 1160 414.22 1160.78 414.22C1161.3 414.22 1161.76 414.107 1162.16 413.88C1162.57 413.64 1162.88 413.313 1163.08 412.9L1165.32 414.18C1164.88 414.967 1164.26 415.6 1163.46 416.08C1162.66 416.547 1161.77 416.78 1160.8 416.78ZM1172.04 406.22C1173.13 406.22 1174.03 406.587 1174.74 407.32C1175.46 408.053 1175.82 409.067 1175.82 410.36V416.5H1173.24V410.68C1173.24 410.013 1173.06 409.507 1172.7 409.16C1172.34 408.8 1171.86 408.62 1171.26 408.62C1170.59 408.62 1170.06 408.827 1169.66 409.24C1169.26 409.653 1169.06 410.273 1169.06 411.1V416.5H1166.48V402.5H1169.06V407.62C1169.69 406.687 1170.68 406.22 1172.04 406.22ZM1185.42 406.5H1188V416.5H1185.42V415.32C1184.65 416.293 1183.56 416.78 1182.16 416.78C1180.83 416.78 1179.68 416.273 1178.72 415.26C1177.78 414.233 1177.3 412.98 1177.3 411.5C1177.3 410.02 1177.78 408.773 1178.72 407.76C1179.68 406.733 1180.83 406.22 1182.16 406.22C1183.56 406.22 1184.65 406.707 1185.42 407.68V406.5ZM1180.66 413.54C1181.18 414.06 1181.84 414.32 1182.64 414.32C1183.44 414.32 1184.1 414.06 1184.62 413.54C1185.16 413.007 1185.42 412.327 1185.42 411.5C1185.42 410.673 1185.16 410 1184.62 409.48C1184.1 408.947 1183.44 408.68 1182.64 408.68C1181.84 408.68 1181.18 408.947 1180.66 409.48C1180.14 410 1179.88 410.673 1179.88 411.5C1179.88 412.327 1180.14 413.007 1180.66 413.54ZM1191.42 405.3C1191 405.3 1190.62 405.147 1190.3 404.84C1190 404.52 1189.84 404.147 1189.84 403.72C1189.84 403.293 1190 402.92 1190.3 402.6C1190.62 402.28 1191 402.12 1191.42 402.12C1191.86 402.12 1192.24 402.28 1192.54 402.6C1192.86 402.92 1193.02 403.293 1193.02 403.72C1193.02 404.147 1192.86 404.52 1192.54 404.84C1192.24 405.147 1191.86 405.3 1191.42 405.3ZM1190.14 416.5V406.5H1192.72V416.5H1190.14ZM1200.44 406.22C1201.54 406.22 1202.44 406.587 1203.14 407.32C1203.86 408.053 1204.22 409.067 1204.22 410.36V416.5H1201.64V410.68C1201.64 410.013 1201.46 409.507 1201.1 409.16C1200.74 408.8 1200.26 408.62 1199.66 408.62C1199 408.62 1198.46 408.827 1198.06 409.24C1197.66 409.653 1197.46 410.273 1197.46 411.1V416.5H1194.88V406.5H1197.46V407.62C1198.09 406.687 1199.08 406.22 1200.44 406.22ZM1222.89 415.7L1220.69 416.96L1219.41 415.58C1218.33 416.38 1217.07 416.78 1215.65 416.78C1214.21 416.78 1213.03 416.407 1212.11 415.66C1211.2 414.9 1210.75 413.887 1210.75 412.62C1210.75 411.793 1210.95 411.027 1211.35 410.32C1211.75 409.613 1212.33 409.04 1213.09 408.6C1212.63 407.88 1212.41 407.1 1212.41 406.26C1212.41 405.073 1212.82 404.107 1213.65 403.36C1214.47 402.6 1215.52 402.22 1216.79 402.22C1217.79 402.22 1218.68 402.48 1219.47 403C1220.27 403.507 1220.86 404.247 1221.25 405.22L1218.89 406.58C1218.5 405.46 1217.81 404.9 1216.83 404.9C1216.35 404.9 1215.95 405.04 1215.63 405.32C1215.32 405.6 1215.17 405.953 1215.17 406.38C1215.17 406.753 1215.25 407.093 1215.43 407.4C1215.61 407.707 1215.91 408.073 1216.31 408.5L1219.31 411.78C1219.6 411.153 1219.83 410.38 1219.99 409.46L1222.31 410.78C1222.05 411.86 1221.65 412.84 1221.09 413.72L1222.89 415.7ZM1215.83 414.24C1216.52 414.24 1217.14 414.073 1217.69 413.74L1214.67 410.46C1214.64 410.433 1214.63 410.413 1214.63 410.4C1213.89 410.853 1213.53 411.5 1213.53 412.34C1213.53 412.913 1213.72 413.373 1214.11 413.72C1214.51 414.067 1215.08 414.24 1215.83 414.24ZM1237.3 402.5H1240.06V416.5H1237.96L1231.96 407.94V416.5H1229.2V402.5H1231.3L1237.3 411.04V402.5ZM1250.82 405.14H1245.22V408.46H1250.66V411.1H1245.22V416.5H1242.46V402.5H1250.82V405.14ZM1261.89 402.5V405.14H1258.11V416.5H1255.35V405.14H1251.59V402.5H1261.89Z" fill="#FDAF1B"/>
<rect x="930.923" y="493.923" width="430.153" height="430.153" rx="215.077" stroke="#665E91" stroke-width="1.84691"/>
<path d="M1035.5 702V716H1032.76V706.92L1028.82 713.42H1028.5L1024.56 706.94V716H1021.8V702H1024.64L1028.66 708.62L1032.66 702H1035.5ZM1046.31 714.76C1045.28 715.773 1044.03 716.28 1042.55 716.28C1041.07 716.28 1039.82 715.773 1038.79 714.76C1037.78 713.733 1037.27 712.48 1037.27 711C1037.27 709.52 1037.78 708.273 1038.79 707.26C1039.82 706.233 1041.07 705.72 1042.55 705.72C1044.03 705.72 1045.28 706.233 1046.31 707.26C1047.34 708.273 1047.85 709.52 1047.85 711C1047.85 712.48 1047.34 713.733 1046.31 714.76ZM1040.61 712.98C1041.13 713.5 1041.78 713.76 1042.55 713.76C1043.32 713.76 1043.97 713.5 1044.49 712.98C1045.01 712.46 1045.27 711.8 1045.27 711C1045.27 710.2 1045.01 709.54 1044.49 709.02C1043.97 708.5 1043.32 708.24 1042.55 708.24C1041.78 708.24 1041.13 708.5 1040.61 709.02C1040.1 709.54 1039.85 710.2 1039.85 711C1039.85 711.8 1040.1 712.46 1040.61 712.98ZM1055.28 705.72C1056.63 705.72 1057.78 706.233 1058.72 707.26C1059.68 708.273 1060.16 709.52 1060.16 711C1060.16 712.48 1059.68 713.733 1058.72 714.76C1057.78 715.773 1056.63 716.28 1055.28 716.28C1053.88 716.28 1052.8 715.793 1052.04 714.82V716H1049.46V702H1052.04V707.18C1052.8 706.207 1053.88 705.72 1055.28 705.72ZM1052.82 713.04C1053.34 713.56 1054 713.82 1054.8 713.82C1055.6 713.82 1056.26 713.56 1056.78 713.04C1057.32 712.507 1057.58 711.827 1057.58 711C1057.58 710.173 1057.32 709.5 1056.78 708.98C1056.26 708.447 1055.6 708.18 1054.8 708.18C1054 708.18 1053.34 708.447 1052.82 708.98C1052.3 709.5 1052.04 710.173 1052.04 711C1052.04 711.827 1052.3 712.507 1052.82 713.04ZM1063.06 704.8C1062.64 704.8 1062.26 704.647 1061.94 704.34C1061.64 704.02 1061.48 703.647 1061.48 703.22C1061.48 702.793 1061.64 702.42 1061.94 702.1C1062.26 701.78 1062.64 701.62 1063.06 701.62C1063.5 701.62 1063.88 701.78 1064.18 702.1C1064.5 702.42 1064.66 702.793 1064.66 703.22C1064.66 703.647 1064.5 704.02 1064.18 704.34C1063.88 704.647 1063.5 704.8 1063.06 704.8ZM1061.78 716V706H1064.36V716H1061.78ZM1066.52 716V701.4H1069.1V716H1066.52ZM1073.45 712.06C1073.79 713.313 1074.73 713.94 1076.27 713.94C1077.25 713.94 1078 713.607 1078.51 712.94L1080.59 714.14C1079.6 715.567 1078.15 716.28 1076.23 716.28C1074.57 716.28 1073.25 715.78 1072.25 714.78C1071.25 713.78 1070.75 712.52 1070.75 711C1070.75 709.493 1071.24 708.24 1072.23 707.24C1073.21 706.227 1074.48 705.72 1076.03 705.72C1077.49 705.72 1078.7 706.227 1079.65 707.24C1080.61 708.253 1081.09 709.507 1081.09 711C1081.09 711.333 1081.05 711.687 1080.99 712.06H1073.45ZM1073.41 710.06H1078.51C1078.36 709.38 1078.05 708.873 1077.59 708.54C1077.13 708.207 1076.61 708.04 1076.03 708.04C1075.33 708.04 1074.76 708.22 1074.31 708.58C1073.85 708.927 1073.55 709.42 1073.41 710.06ZM1095.09 706H1097.67V716H1095.09V714.82C1094.31 715.793 1093.23 716.28 1091.83 716.28C1090.49 716.28 1089.35 715.773 1088.39 714.76C1087.44 713.733 1086.97 712.48 1086.97 711C1086.97 709.52 1087.44 708.273 1088.39 707.26C1089.35 706.233 1090.49 705.72 1091.83 705.72C1093.23 705.72 1094.31 706.207 1095.09 707.18V706ZM1090.33 713.04C1090.85 713.56 1091.51 713.82 1092.31 713.82C1093.11 713.82 1093.77 713.56 1094.29 713.04C1094.82 712.507 1095.09 711.827 1095.09 711C1095.09 710.173 1094.82 709.5 1094.29 708.98C1093.77 708.447 1093.11 708.18 1092.31 708.18C1091.51 708.18 1090.85 708.447 1090.33 708.98C1089.81 709.5 1089.55 710.173 1089.55 711C1089.55 711.827 1089.81 712.507 1090.33 713.04ZM1105.63 705.72C1106.97 705.72 1108.12 706.233 1109.07 707.26C1110.03 708.273 1110.51 709.52 1110.51 711C1110.51 712.48 1110.03 713.733 1109.07 714.76C1108.12 715.773 1106.97 716.28 1105.63 716.28C1104.23 716.28 1103.15 715.793 1102.39 714.82V720H1099.81V706H1102.39V707.18C1103.15 706.207 1104.23 705.72 1105.63 705.72ZM1103.17 713.04C1103.69 713.56 1104.35 713.82 1105.15 713.82C1105.95 713.82 1106.61 713.56 1107.13 713.04C1107.66 712.507 1107.93 711.827 1107.93 711C1107.93 710.173 1107.66 709.5 1107.13 708.98C1106.61 708.447 1105.95 708.18 1105.15 708.18C1104.35 708.18 1103.69 708.447 1103.17 708.98C1102.65 709.5 1102.39 710.173 1102.39 711C1102.39 711.827 1102.65 712.507 1103.17 713.04ZM1117.95 705.72C1119.29 705.72 1120.44 706.233 1121.39 707.26C1122.35 708.273 1122.83 709.52 1122.83 711C1122.83 712.48 1122.35 713.733 1121.39 714.76C1120.44 715.773 1119.29 716.28 1117.95 716.28C1116.55 716.28 1115.47 715.793 1114.71 714.82V720H1112.13V706H1114.71V707.18C1115.47 706.207 1116.55 705.72 1117.95 705.72ZM1115.49 713.04C1116.01 713.56 1116.67 713.82 1117.47 713.82C1118.27 713.82 1118.93 713.56 1119.45 713.04C1119.98 712.507 1120.25 711.827 1120.25 711C1120.25 710.173 1119.98 709.5 1119.45 708.98C1118.93 708.447 1118.27 708.18 1117.47 708.18C1116.67 708.18 1116.01 708.447 1115.49 708.98C1114.97 709.5 1114.71 710.173 1114.71 711C1114.71 711.827 1114.97 712.507 1115.49 713.04ZM1126.61 708.84C1126.61 709.107 1126.78 709.327 1127.13 709.5C1127.49 709.66 1127.92 709.807 1128.43 709.94C1128.94 710.06 1129.44 710.22 1129.95 710.42C1130.46 710.607 1130.88 710.927 1131.23 711.38C1131.59 711.833 1131.77 712.4 1131.77 713.08C1131.77 714.107 1131.38 714.9 1130.61 715.46C1129.85 716.007 1128.9 716.28 1127.75 716.28C1125.7 716.28 1124.3 715.487 1123.55 713.9L1125.79 712.64C1126.08 713.507 1126.74 713.94 1127.75 713.94C1128.67 713.94 1129.13 713.653 1129.13 713.08C1129.13 712.813 1128.95 712.6 1128.59 712.44C1128.24 712.267 1127.82 712.113 1127.31 711.98C1126.8 711.847 1126.3 711.68 1125.79 711.48C1125.28 711.28 1124.85 710.967 1124.49 710.54C1124.14 710.1 1123.97 709.553 1123.97 708.9C1123.97 707.913 1124.33 707.14 1125.05 706.58C1125.78 706.007 1126.69 705.72 1127.77 705.72C1128.58 705.72 1129.32 705.907 1129.99 706.28C1130.66 706.64 1131.18 707.16 1131.57 707.84L1129.37 709.04C1129.05 708.36 1128.52 708.02 1127.77 708.02C1127.44 708.02 1127.16 708.093 1126.93 708.24C1126.72 708.387 1126.61 708.587 1126.61 708.84ZM1145.73 706H1148.31V716H1145.73V714.82C1144.95 715.793 1143.87 716.28 1142.47 716.28C1141.13 716.28 1139.99 715.773 1139.03 714.76C1138.08 713.733 1137.61 712.48 1137.61 711C1137.61 709.52 1138.08 708.273 1139.03 707.26C1139.99 706.233 1141.13 705.72 1142.47 705.72C1143.87 705.72 1144.95 706.207 1145.73 707.18V706ZM1140.97 713.04C1141.49 713.56 1142.15 713.82 1142.95 713.82C1143.75 713.82 1144.41 713.56 1144.93 713.04C1145.46 712.507 1145.73 711.827 1145.73 711C1145.73 710.173 1145.46 709.5 1144.93 708.98C1144.41 708.447 1143.75 708.18 1142.95 708.18C1142.15 708.18 1141.49 708.447 1140.97 708.98C1140.45 709.5 1140.19 710.173 1140.19 711C1140.19 711.827 1140.45 712.507 1140.97 713.04ZM1156.01 705.72C1157.1 705.72 1158 706.087 1158.71 706.82C1159.43 707.553 1159.79 708.567 1159.79 709.86V716H1157.21V710.18C1157.21 709.513 1157.03 709.007 1156.67 708.66C1156.31 708.3 1155.83 708.12 1155.23 708.12C1154.56 708.12 1154.03 708.327 1153.63 708.74C1153.23 709.153 1153.03 709.773 1153.03 710.6V716H1150.45V706H1153.03V707.12C1153.65 706.187 1154.65 705.72 1156.01 705.72ZM1169.37 702H1171.95V716H1169.37V714.82C1168.61 715.793 1167.53 716.28 1166.13 716.28C1164.78 716.28 1163.63 715.773 1162.67 714.76C1161.72 713.733 1161.25 712.48 1161.25 711C1161.25 709.52 1161.72 708.273 1162.67 707.26C1163.63 706.233 1164.78 705.72 1166.13 705.72C1167.53 705.72 1168.61 706.207 1169.37 707.18V702ZM1164.61 713.04C1165.14 713.56 1165.81 713.82 1166.61 713.82C1167.41 713.82 1168.07 713.56 1168.59 713.04C1169.11 712.507 1169.37 711.827 1169.37 711C1169.37 710.173 1169.11 709.5 1168.59 708.98C1168.07 708.447 1167.41 708.18 1166.61 708.18C1165.81 708.18 1165.14 708.447 1164.61 708.98C1164.09 709.5 1163.83 710.173 1163.83 711C1163.83 711.827 1164.09 712.507 1164.61 713.04ZM1189.97 705.72C1191.12 705.72 1192.03 706.093 1192.71 706.84C1193.4 707.587 1193.75 708.587 1193.75 709.84V716H1191.17V710.02C1191.17 709.42 1191.02 708.953 1190.73 708.62C1190.44 708.287 1190.02 708.12 1189.49 708.12C1188.9 708.12 1188.44 708.313 1188.11 708.7C1187.79 709.087 1187.63 709.647 1187.63 710.38V716H1185.05V710.02C1185.05 709.42 1184.9 708.953 1184.61 708.62C1184.32 708.287 1183.9 708.12 1183.37 708.12C1182.8 708.12 1182.34 708.313 1181.99 708.7C1181.66 709.087 1181.49 709.647 1181.49 710.38V716H1178.91V706H1181.49V707.06C1182.09 706.167 1183.02 705.72 1184.27 705.72C1185.5 705.72 1186.4 706.2 1186.99 707.16C1187.66 706.2 1188.65 705.72 1189.97 705.72ZM1197.02 704.8C1196.59 704.8 1196.22 704.647 1195.9 704.34C1195.59 704.02 1195.44 703.647 1195.44 703.22C1195.44 702.793 1195.59 702.42 1195.9 702.1C1196.22 701.78 1196.59 701.62 1197.02 701.62C1197.46 701.62 1197.83 701.78 1198.14 702.1C1198.46 702.42 1198.62 702.793 1198.62 703.22C1198.62 703.647 1198.46 704.02 1198.14 704.34C1197.83 704.647 1197.46 704.8 1197.02 704.8ZM1195.74 716V706H1198.32V716H1195.74ZM1206.04 705.72C1207.14 705.72 1208.04 706.087 1208.74 706.82C1209.46 707.553 1209.82 708.567 1209.82 709.86V716H1207.24V710.18C1207.24 709.513 1207.06 709.007 1206.7 708.66C1206.34 708.3 1205.86 708.12 1205.26 708.12C1204.6 708.12 1204.06 708.327 1203.66 708.74C1203.26 709.153 1203.06 709.773 1203.06 710.6V716H1200.48V706H1203.06V707.12C1203.69 706.187 1204.68 705.72 1206.04 705.72ZM1213.11 704.8C1212.68 704.8 1212.31 704.647 1211.99 704.34C1211.68 704.02 1211.53 703.647 1211.53 703.22C1211.53 702.793 1211.68 702.42 1211.99 702.1C1212.31 701.78 1212.68 701.62 1213.11 701.62C1213.55 701.62 1213.92 701.78 1214.23 702.1C1214.55 702.42 1214.71 702.793 1214.71 703.22C1214.71 703.647 1214.55 704.02 1214.23 704.34C1213.92 704.647 1213.55 704.8 1213.11 704.8ZM1211.83 716V706H1214.41V716H1211.83ZM1216.69 711.2V708.72H1224.19V711.2H1216.69ZM1234.06 706H1236.64V716H1234.06V714.82C1233.29 715.793 1232.2 716.28 1230.8 716.28C1229.47 716.28 1228.32 715.773 1227.36 714.76C1226.42 713.733 1225.94 712.48 1225.94 711C1225.94 709.52 1226.42 708.273 1227.36 707.26C1228.32 706.233 1229.47 705.72 1230.8 705.72C1232.2 705.72 1233.29 706.207 1234.06 707.18V706ZM1229.3 713.04C1229.82 713.56 1230.48 713.82 1231.28 713.82C1232.08 713.82 1232.74 713.56 1233.26 713.04C1233.8 712.507 1234.06 711.827 1234.06 711C1234.06 710.173 1233.8 709.5 1233.26 708.98C1232.74 708.447 1232.08 708.18 1231.28 708.18C1230.48 708.18 1229.82 708.447 1229.3 708.98C1228.78 709.5 1228.52 710.173 1228.52 711C1228.52 711.827 1228.78 712.507 1229.3 713.04ZM1244.6 705.72C1245.95 705.72 1247.1 706.233 1248.04 707.26C1249 708.273 1249.48 709.52 1249.48 711C1249.48 712.48 1249 713.733 1248.04 714.76C1247.1 715.773 1245.95 716.28 1244.6 716.28C1243.2 716.28 1242.12 715.793 1241.36 714.82V720H1238.78V706H1241.36V707.18C1242.12 706.207 1243.2 705.72 1244.6 705.72ZM1242.14 713.04C1242.66 713.56 1243.32 713.82 1244.12 713.82C1244.92 713.82 1245.58 713.56 1246.1 713.04C1246.64 712.507 1246.9 711.827 1246.9 711C1246.9 710.173 1246.64 709.5 1246.1 708.98C1245.58 708.447 1244.92 708.18 1244.12 708.18C1243.32 708.18 1242.66 708.447 1242.14 708.98C1241.62 709.5 1241.36 710.173 1241.36 711C1241.36 711.827 1241.62 712.507 1242.14 713.04ZM1256.92 705.72C1258.27 705.72 1259.42 706.233 1260.36 707.26C1261.32 708.273 1261.8 709.52 1261.8 711C1261.8 712.48 1261.32 713.733 1260.36 714.76C1259.42 715.773 1258.27 716.28 1256.92 716.28C1255.52 716.28 1254.44 715.793 1253.68 714.82V720H1251.1V706H1253.68V707.18C1254.44 706.207 1255.52 705.72 1256.92 705.72ZM1254.46 713.04C1254.98 713.56 1255.64 713.82 1256.44 713.82C1257.24 713.82 1257.9 713.56 1258.42 713.04C1258.96 712.507 1259.22 711.827 1259.22 711C1259.22 710.173 1258.96 709.5 1258.42 708.98C1257.9 708.447 1257.24 708.18 1256.44 708.18C1255.64 708.18 1254.98 708.447 1254.46 708.98C1253.94 709.5 1253.68 710.173 1253.68 711C1253.68 711.827 1253.94 712.507 1254.46 713.04ZM1265.59 708.84C1265.59 709.107 1265.76 709.327 1266.11 709.5C1266.47 709.66 1266.9 709.807 1267.41 709.94C1267.91 710.06 1268.42 710.22 1268.93 710.42C1269.43 710.607 1269.86 710.927 1270.21 711.38C1270.57 711.833 1270.75 712.4 1270.75 713.08C1270.75 714.107 1270.36 714.9 1269.59 715.46C1268.83 716.007 1267.87 716.28 1266.73 716.28C1264.67 716.28 1263.27 715.487 1262.53 713.9L1264.77 712.64C1265.06 713.507 1265.71 713.94 1266.73 713.94C1267.65 713.94 1268.11 713.653 1268.11 713.08C1268.11 712.813 1267.93 712.6 1267.57 712.44C1267.22 712.267 1266.79 712.113 1266.29 711.98C1265.78 711.847 1265.27 711.68 1264.77 711.48C1264.26 711.28 1263.83 710.967 1263.47 710.54C1263.12 710.1 1262.95 709.553 1262.95 708.9C1262.95 707.913 1263.31 707.14 1264.03 706.58C1264.76 706.007 1265.67 705.72 1266.75 705.72C1267.56 705.72 1268.3 705.907 1268.97 706.28C1269.63 706.64 1270.16 707.16 1270.55 707.84L1268.35 709.04C1268.03 708.36 1267.49 708.02 1266.75 708.02C1266.41 708.02 1266.13 708.093 1265.91 708.24C1265.69 708.387 1265.59 708.587 1265.59 708.84Z" fill="#FDAF1B"/>
<rect x="495.923" y="769.923" width="573.153" height="574.153" rx="286.577" stroke="#665E91" stroke-width="1.84691"/>
<path d="M705.3 1064L704.46 1061.48H698.88L698.04 1064H695.06L699.96 1050H703.38L708.3 1064H705.3ZM699.76 1058.9H703.6L701.68 1053.18L699.76 1058.9ZM715.842 1054H718.422V1064H715.842V1062.88C715.215 1063.81 714.222 1064.28 712.862 1064.28C711.768 1064.28 710.862 1063.91 710.142 1063.18C709.435 1062.45 709.082 1061.43 709.082 1060.14V1054H711.662V1059.82C711.662 1060.49 711.842 1061 712.202 1061.36C712.562 1061.71 713.042 1061.88 713.642 1061.88C714.308 1061.88 714.842 1061.67 715.242 1061.26C715.642 1060.85 715.842 1060.23 715.842 1059.4V1054ZM728.245 1054H730.765V1063.52C730.765 1065.07 730.251 1066.25 729.225 1067.06C728.211 1067.87 726.985 1068.28 725.545 1068.28C724.465 1068.28 723.511 1068.07 722.685 1067.66C721.871 1067.25 721.245 1066.64 720.805 1065.84L723.005 1064.58C723.511 1065.51 724.385 1065.98 725.625 1065.98C726.438 1065.98 727.078 1065.77 727.545 1065.34C728.011 1064.91 728.245 1064.31 728.245 1063.52V1062.44C727.485 1063.45 726.418 1063.96 725.045 1063.96C723.631 1063.96 722.445 1063.47 721.485 1062.48C720.538 1061.48 720.065 1060.27 720.065 1058.84C720.065 1057.43 720.545 1056.22 721.505 1055.22C722.465 1054.22 723.645 1053.72 725.045 1053.72C726.418 1053.72 727.485 1054.23 728.245 1055.24V1054ZM723.425 1060.82C723.958 1061.33 724.631 1061.58 725.445 1061.58C726.258 1061.58 726.925 1061.33 727.445 1060.82C727.978 1060.3 728.245 1059.64 728.245 1058.84C728.245 1058.05 727.978 1057.41 727.445 1056.9C726.925 1056.38 726.258 1056.12 725.445 1056.12C724.631 1056.12 723.958 1056.38 723.425 1056.9C722.905 1057.41 722.645 1058.05 722.645 1058.84C722.645 1059.64 722.905 1060.3 723.425 1060.82ZM743.964 1053.72C745.111 1053.72 746.024 1054.09 746.704 1054.84C747.398 1055.59 747.744 1056.59 747.744 1057.84V1064H745.164V1058.02C745.164 1057.42 745.018 1056.95 744.724 1056.62C744.431 1056.29 744.018 1056.12 743.484 1056.12C742.898 1056.12 742.438 1056.31 742.104 1056.7C741.784 1057.09 741.624 1057.65 741.624 1058.38V1064H739.044V1058.02C739.044 1057.42 738.898 1056.95 738.604 1056.62C738.311 1056.29 737.898 1056.12 737.364 1056.12C736.791 1056.12 736.331 1056.31 735.984 1056.7C735.651 1057.09 735.484 1057.65 735.484 1058.38V1064H732.904V1054H735.484V1055.06C736.084 1054.17 737.011 1053.72 738.264 1053.72C739.491 1053.72 740.398 1054.2 740.984 1055.16C741.651 1054.2 742.644 1053.72 743.964 1053.72ZM751.915 1060.06C752.262 1061.31 753.202 1061.94 754.735 1061.94C755.722 1061.94 756.469 1061.61 756.975 1060.94L759.055 1062.14C758.069 1063.57 756.615 1064.28 754.695 1064.28C753.042 1064.28 751.715 1063.78 750.715 1062.78C749.715 1061.78 749.215 1060.52 749.215 1059C749.215 1057.49 749.709 1056.24 750.695 1055.24C751.682 1054.23 752.949 1053.72 754.495 1053.72C755.962 1053.72 757.169 1054.23 758.115 1055.24C759.075 1056.25 759.555 1057.51 759.555 1059C759.555 1059.33 759.522 1059.69 759.455 1060.06H751.915ZM751.875 1058.06H756.975C756.829 1057.38 756.522 1056.87 756.055 1056.54C755.602 1056.21 755.082 1056.04 754.495 1056.04C753.802 1056.04 753.229 1056.22 752.775 1056.58C752.322 1056.93 752.022 1057.42 751.875 1058.06ZM766.717 1053.72C767.81 1053.72 768.71 1054.09 769.417 1054.82C770.137 1055.55 770.497 1056.57 770.497 1057.86V1064H767.917V1058.18C767.917 1057.51 767.737 1057.01 767.377 1056.66C767.017 1056.3 766.537 1056.12 765.937 1056.12C765.27 1056.12 764.737 1056.33 764.337 1056.74C763.937 1057.15 763.737 1057.77 763.737 1058.6V1064H761.157V1054H763.737V1055.12C764.363 1054.19 765.357 1053.72 766.717 1053.72ZM778.22 1056.48H775.96V1060.64C775.96 1060.99 776.046 1061.24 776.22 1061.4C776.393 1061.56 776.646 1061.65 776.98 1061.68C777.313 1061.69 777.726 1061.69 778.22 1061.66V1064C776.446 1064.2 775.193 1064.03 774.46 1063.5C773.74 1062.97 773.38 1062.01 773.38 1060.64V1056.48H771.64V1054H773.38V1051.98L775.96 1051.2V1054H778.22V1056.48ZM781.706 1060.06C782.053 1061.31 782.993 1061.94 784.526 1061.94C785.513 1061.94 786.259 1061.61 786.766 1060.94L788.846 1062.14C787.859 1063.57 786.406 1064.28 784.486 1064.28C782.833 1064.28 781.506 1063.78 780.506 1062.78C779.506 1061.78 779.006 1060.52 779.006 1059C779.006 1057.49 779.499 1056.24 780.486 1055.24C781.473 1054.23 782.739 1053.72 784.286 1053.72C785.753 1053.72 786.959 1054.23 787.906 1055.24C788.866 1056.25 789.346 1057.51 789.346 1059C789.346 1059.33 789.313 1059.69 789.246 1060.06H781.706ZM781.666 1058.06H786.766C786.619 1057.38 786.313 1056.87 785.846 1056.54C785.393 1056.21 784.873 1056.04 784.286 1056.04C783.593 1056.04 783.019 1056.22 782.566 1056.58C782.113 1056.93 781.813 1057.42 781.666 1058.06ZM798.449 1050H801.029V1064H798.449V1062.82C797.689 1063.79 796.609 1064.28 795.209 1064.28C793.862 1064.28 792.709 1063.77 791.749 1062.76C790.802 1061.73 790.329 1060.48 790.329 1059C790.329 1057.52 790.802 1056.27 791.749 1055.26C792.709 1054.23 793.862 1053.72 795.209 1053.72C796.609 1053.72 797.689 1054.21 798.449 1055.18V1050ZM793.689 1061.04C794.222 1061.56 794.889 1061.82 795.689 1061.82C796.489 1061.82 797.149 1061.56 797.669 1061.04C798.189 1060.51 798.449 1059.83 798.449 1059C798.449 1058.17 798.189 1057.5 797.669 1056.98C797.149 1056.45 796.489 1056.18 795.689 1056.18C794.889 1056.18 794.222 1056.45 793.689 1056.98C793.169 1057.5 792.909 1058.17 792.909 1059C792.909 1059.83 793.169 1060.51 793.689 1061.04ZM815.789 1064L812.969 1059.14H810.869V1064H808.109V1050H813.709C815.002 1050 816.102 1050.45 817.009 1051.36C817.915 1052.27 818.369 1053.36 818.369 1054.64C818.369 1055.51 818.122 1056.31 817.629 1057.06C817.135 1057.79 816.482 1058.35 815.669 1058.72L818.769 1064H815.789ZM810.869 1052.58V1056.72H813.709C814.229 1056.72 814.675 1056.52 815.049 1056.12C815.422 1055.71 815.609 1055.21 815.609 1054.64C815.609 1054.07 815.422 1053.58 815.049 1053.18C814.675 1052.78 814.229 1052.58 813.709 1052.58H810.869ZM821.746 1060.06C822.093 1061.31 823.033 1061.94 824.566 1061.94C825.553 1061.94 826.299 1061.61 826.806 1060.94L828.886 1062.14C827.899 1063.57 826.446 1064.28 824.526 1064.28C822.873 1064.28 821.546 1063.78 820.546 1062.78C819.546 1061.78 819.046 1060.52 819.046 1059C819.046 1057.49 819.539 1056.24 820.526 1055.24C821.513 1054.23 822.779 1053.72 824.326 1053.72C825.793 1053.72 826.999 1054.23 827.946 1055.24C828.906 1056.25 829.386 1057.51 829.386 1059C829.386 1059.33 829.353 1059.69 829.286 1060.06H821.746ZM821.706 1058.06H826.806C826.659 1057.38 826.353 1056.87 825.886 1056.54C825.433 1056.21 824.913 1056.04 824.326 1056.04C823.633 1056.04 823.059 1056.22 822.606 1056.58C822.153 1056.93 821.853 1057.42 821.706 1058.06ZM838.509 1054H841.089V1064H838.509V1062.82C837.736 1063.79 836.649 1064.28 835.249 1064.28C833.916 1064.28 832.769 1063.77 831.809 1062.76C830.862 1061.73 830.389 1060.48 830.389 1059C830.389 1057.52 830.862 1056.27 831.809 1055.26C832.769 1054.23 833.916 1053.72 835.249 1053.72C836.649 1053.72 837.736 1054.21 838.509 1055.18V1054ZM833.749 1061.04C834.269 1061.56 834.929 1061.82 835.729 1061.82C836.529 1061.82 837.189 1061.56 837.709 1061.04C838.242 1060.51 838.509 1059.83 838.509 1059C838.509 1058.17 838.242 1057.5 837.709 1056.98C837.189 1056.45 836.529 1056.18 835.729 1056.18C834.929 1056.18 834.269 1056.45 833.749 1056.98C833.229 1057.5 832.969 1058.17 832.969 1059C832.969 1059.83 833.229 1060.51 833.749 1061.04ZM843.228 1064V1049.4H845.808V1064H843.228ZM849.25 1052.8C848.823 1052.8 848.45 1052.65 848.13 1052.34C847.823 1052.02 847.67 1051.65 847.67 1051.22C847.67 1050.79 847.823 1050.42 848.13 1050.1C848.45 1049.78 848.823 1049.62 849.25 1049.62C849.69 1049.62 850.063 1049.78 850.37 1050.1C850.69 1050.42 850.85 1050.79 850.85 1051.22C850.85 1051.65 850.69 1052.02 850.37 1052.34C850.063 1052.65 849.69 1052.8 849.25 1052.8ZM847.97 1064V1054H850.55V1064H847.97ZM858.431 1056.48H856.171V1060.64C856.171 1060.99 856.258 1061.24 856.431 1061.4C856.605 1061.56 856.858 1061.65 857.191 1061.68C857.525 1061.69 857.938 1061.69 858.431 1061.66V1064C856.658 1064.2 855.405 1064.03 854.671 1063.5C853.951 1062.97 853.591 1062.01 853.591 1060.64V1056.48H851.851V1054H853.591V1051.98L856.171 1051.2V1054H858.431V1056.48ZM866.785 1054H869.545L865.905 1064C865.385 1065.44 864.692 1066.48 863.825 1067.12C862.972 1067.77 861.905 1068.07 860.625 1068V1065.6C861.318 1065.61 861.865 1065.47 862.265 1065.16C862.678 1064.85 863.005 1064.36 863.245 1063.68L859.145 1054H861.965L864.565 1060.72L866.785 1054Z" fill="#FDAF1B"/>
<rect x="482.923" y="648.923" width="183.153" height="183.153" rx="91.5765" stroke="#665E91" stroke-width="1.84691"/>
<path d="M541.5 733.5V747.5H538.76V738.42L534.82 744.92H534.5L530.56 738.44V747.5H527.8V733.5H530.64L534.66 740.12L538.66 733.5H541.5ZM545.969 743.56C546.329 744.88 547.429 745.44 548.789 745.44C549.789 745.44 550.589 745.02 551.029 744.44L553.109 745.64C552.169 747 550.669 747.78 548.749 747.78C545.389 747.78 543.269 745.48 543.269 742.5C543.269 739.52 545.409 737.22 548.549 737.22C551.509 737.22 553.609 739.56 553.609 742.5C553.609 742.88 553.569 743.22 553.509 743.56H545.969ZM545.929 741.56H551.029C550.709 740.12 549.629 739.54 548.549 739.54C547.169 739.54 546.229 740.28 545.929 741.56ZM560.637 739.98H558.377V744.14C558.377 745.22 559.157 745.24 560.637 745.16V747.5C557.017 747.9 555.797 746.84 555.797 744.14V739.98H554.057V737.5H555.797V735.48L558.377 734.7V737.5H560.637V739.98ZM569.543 737.5H572.123V747.5H569.543V746.32C568.823 747.22 567.743 747.78 566.283 747.78C563.623 747.78 561.423 745.48 561.423 742.5C561.423 739.52 563.623 737.22 566.283 737.22C567.743 737.22 568.823 737.78 569.543 738.68V737.5ZM566.763 745.32C568.363 745.32 569.543 744.18 569.543 742.5C569.543 740.82 568.363 739.68 566.763 739.68C565.183 739.68 564.003 740.82 564.003 742.5C564.003 744.18 565.183 745.32 566.763 745.32ZM580.843 737.5H583.683L579.883 747.5H576.943L573.143 737.5H575.983L578.403 744.5L580.843 737.5ZM586.516 743.56C586.876 744.88 587.976 745.44 589.336 745.44C590.336 745.44 591.136 745.02 591.576 744.44L593.656 745.64C592.716 747 591.216 747.78 589.296 747.78C585.936 747.78 583.816 745.48 583.816 742.5C583.816 739.52 585.956 737.22 589.096 737.22C592.056 737.22 594.156 739.56 594.156 742.5C594.156 742.88 594.116 743.22 594.056 743.56H586.516ZM586.476 741.56H591.576C591.256 740.12 590.176 739.54 589.096 739.54C587.716 739.54 586.776 740.28 586.476 741.56ZM598.337 739.22C598.857 737.86 600.117 737.3 601.377 737.3V740.18C600.037 740.02 598.337 740.62 598.337 742.72V747.5H595.757V737.5H598.337V739.22ZM604.754 740.34C604.754 741.82 609.914 740.9 609.914 744.58C609.914 746.74 608.034 747.78 605.894 747.78C603.894 747.78 602.414 746.94 601.694 745.4L603.934 744.14C604.214 744.96 604.894 745.44 605.894 745.44C606.714 745.44 607.274 745.16 607.274 744.58C607.274 743.12 602.114 743.92 602.114 740.4C602.114 738.36 603.854 737.22 605.914 737.22C607.534 737.22 608.934 737.96 609.714 739.34L607.514 740.54C607.214 739.9 606.654 739.52 605.914 739.52C605.274 739.52 604.754 739.8 604.754 740.34ZM613.416 743.56C613.776 744.88 614.876 745.44 616.236 745.44C617.236 745.44 618.036 745.02 618.476 744.44L620.556 745.64C619.616 747 618.116 747.78 616.196 747.78C612.836 747.78 610.716 745.48 610.716 742.5C610.716 739.52 612.856 737.22 615.996 737.22C618.956 737.22 621.056 739.56 621.056 742.5C621.056 742.88 621.016 743.22 620.956 743.56H613.416ZM613.376 741.56H618.476C618.156 740.12 617.076 739.54 615.996 739.54C614.616 739.54 613.676 740.28 613.376 741.56Z" fill="#FDAF1B"/>
</svg>
